<svg xmlns="http://www.w3.org/2000/svg" viewBox="0 0 700 680" width="700" height="680"><g transform="translate(40.0 64.0) rotate(0.0 309.5 274.5) scale(0.9946315605110382 0.9934026483499384)"><svg width="622.341" height="552.646" viewBox="0 0 622.341 552.646"><path d="m250.192 9.705-.279-2.128-.821-1.982-1.307-1.701-1.702-1.307-1.981-.822-2.128-.278-2.127.278-1.982.822-1.702 1.307-1.307 1.702-.821 1.981-.278 2.128.278 2.127.822 1.982 1.307 1.702 1.701 1.307 1.982.821 2.127.278 2.128-.278 1.982-.822 1.701-1.307 1.307-1.701.821-1.982z" fill="#f7b3c7"/><path d="M242.169 19.41h-.389l-2.127-.278-.38-.102-1.982-.821-.34-.196-1.701-1.307-.276-.275-1.307-1.701-.196-.339-.822-1.982-.102-.38-.278-2.128V9.51l.278-2.127.102-.38.822-1.981.196-.339 1.307-1.701.276-.276 1.701-1.307.339-.196 1.982-.822.38-.102L241.78 0h.389l2.127.278.38.102 1.982.821.34.196 1.701 1.307.276.275 1.307 1.701.196.339.822 1.982.102.38.278 2.127v.389l-.278 2.128-.102.38-.822 1.981-.196.339-1.307 1.701-.276.275-1.701 1.307-.339.196-1.982.822-.38.102zm-1.931-3.227 1.736.227 1.736-.227 1.616-.67 1.388-1.067 1.067-1.389.67-1.615.227-1.737-.227-1.736-.67-1.616-1.067-1.389-1.389-1.067-1.616-.67L241.974 3l-1.736.227-1.616.67-1.388 1.067-1.067 1.389-.67 1.615-.227 1.736.227 1.737.67 1.616 1.067 1.389 1.388 1.067z" fill="#231f20"/><path d="m620.854 524.477-.278-2.127-.822-1.982-1.307-1.701-1.701-1.307-1.982-.822-2.128-.278-2.127.278-1.982.822-1.701 1.307-1.307 1.701-.822 1.982-.278 2.127.278 2.128.822 1.982 1.307 1.701 1.701 1.307 1.982.822 2.127.278 2.128-.278 1.982-.822 1.701-1.307 1.307-1.702.822-1.981z" fill="#f7b3c7"/><path d="M612.831 534.182h-.389l-2.127-.278-.38-.102-1.982-.821-.34-.196-1.701-1.307-.276-.275-1.307-1.701-.196-.339-.822-1.982-.102-.38-.278-2.127v-.389l.278-2.127.102-.38.822-1.982.196-.339 1.307-1.701.276-.276 1.701-1.307.339-.196 1.982-.822.38-.102 2.127-.278h.389l2.127.278.38.102 1.982.822.339.196 1.701 1.307.276.275 1.307 1.701.196.339.822 1.982.102.38.278 2.128v.389l-.278 2.127-.102.38-.822 1.981-.196.339-1.307 1.701-.276.275-1.701 1.307-.339.196-1.982.822-.38.102zm-1.931-3.227 1.736.227 1.736-.227 1.616-.67 1.388-1.067 1.067-1.389.67-1.615.227-1.736-.227-1.737-.67-1.616-1.067-1.389-1.389-1.066-1.616-.67-1.736-.227-1.736.227-1.616.67-1.388 1.067-1.067 1.388-.67 1.616-.227 1.736.227 1.736.67 1.616 1.067 1.389 1.388 1.067z" fill="#231f20"/><path d="M72.54 465.684a1.42 1.42 0 0 1-.195-.013l-.792-.104a1.515 1.515 0 0 1-.38-.102l-.738-.306a1.528 1.528 0 0 1-.337-.194l-.634-.486a1.524 1.524 0 0 1-.278-.278l-.486-.634a1.489 1.489 0 0 1-.196-.339l-.305-.738a1.502 1.502 0 0 1-.101-.377l-.104-.792a1.513 1.513 0 0 1 0-.392l.104-.792c.017-.131.051-.258.102-.38l.306-.738c.025-.06.054-.119.086-.175l35.681-61.8c.032-.056.068-.111.108-.162l.486-.634c.08-.104.174-.198.278-.278l.634-.486c.104-.08.218-.146.339-.196l.738-.305c.121-.05.248-.084.377-.101l.792-.104a1.434 1.434 0 0 1 .391 0l.792.104c.13.017.258.052.379.102l.738.306c.121.05.234.115.338.195l.634.486c.104.08.198.174.278.278l.486.634c.08.104.146.218.196.339l.305.738c.05.121.084.247.101.377l.104.792c.017.13.017.262 0 .392l-.104.792a1.474 1.474 0 0 1-.102.38l-.306.738c-.025.06-.054.119-.086.175l-35.68 61.8a1.484 1.484 0 0 1-.108.163l-.486.634c-.08.104-.173.198-.278.278l-.634.486c-.104.08-.218.146-.34.196l-.738.305c-.12.05-.247.084-.376.101l-.792.105c-.066.006-.131.01-.197.01z" fill="#cae062"/><path d="m108.22 396.266.792.104.738.306.634.486.486.634.305.738.105.792-.104.792-.306.738-5.944 10.294-5.945 10.297-5.947 10.301-5.945 10.298-5.949 10.305-5.949 10.305-.486.634-.634.486-.738.305-.792.105-.792-.104-.738-.307-.634-.486-.486-.634-.305-.738-.105-.792.104-.792.306-.737 5.944-10.295 5.945-10.297 5.947-10.301 5.945-10.298 5.949-10.305 5.949-10.305.486-.634.634-.486.738-.305zm0-3c-.131 0-.262.009-.393.026l-.792.104a2.993 2.993 0 0 0-.754.202l-.738.305a3.022 3.022 0 0 0-.679.392l-.634.486c-.209.16-.396.347-.557.557l-.486.634a2.943 2.943 0 0 0-.216.324L97.024 406.6l-5.949 10.305-5.946 10.298-5.947 10.301-5.945 10.297-5.944 10.295a2.824 2.824 0 0 0-.172.349l-.306.737c-.101.243-.17.499-.204.76l-.104.792c-.034.26-.034.523 0 .784l.105.792c.034.259.102.512.202.753l.305.738c.1.242.232.471.391.679l.486.634c.16.209.348.396.557.557l.634.486c.206.158.432.289.672.388l.738.307c.244.102.499.17.761.205l.792.104a3.008 3.008 0 0 0 .785-.001l.792-.105c.258-.034.51-.102.75-.201l.738-.305c.243-.101.473-.232.682-.393l.634-.486c.209-.16.395-.347.555-.556l.486-.634c.079-.103.151-.211.216-.324l5.949-10.305 5.949-10.305 5.945-10.298 5.947-10.301 5.945-10.297 5.944-10.294c.065-.113.123-.229.173-.35l.306-.738a3.03 3.03 0 0 0 .204-.76l.104-.792c.034-.26.034-.523 0-.784l-.105-.792a2.996 2.996 0 0 0-.201-.752l-.305-.738a2.99 2.99 0 0 0-.392-.68l-.486-.634a3.028 3.028 0 0 0-.557-.557l-.634-.486a3.015 3.015 0 0 0-.674-.389l-.738-.306a3.023 3.023 0 0 0-.759-.204l-.792-.104a3.182 3.182 0 0 0-.391-.024z" fill="#231f20"/><path d="M555.037 122.32c-.1 0-.199-.01-.297-.03l-.783-.158a1.504 1.504 0 0 1-.369-.126l-.715-.354a1.49 1.49 0 0 1-.325-.218l-.599-.528a1.498 1.498 0 0 1-.259-.297l-.441-.666a1.571 1.571 0 0 1-.097-.169l-20.313-41.437a1.284 1.284 0 0 1-.074-.18l-.256-.757a1.5 1.5 0 0 1-.076-.387l-.05-.797a1.51 1.51 0 0 1 .027-.391l.158-.783c.026-.128.068-.251.126-.368l.354-.716c.058-.118.132-.228.219-.327l.528-.599a1.52 1.52 0 0 1 .296-.259l.666-.441c.108-.072.226-.129.349-.171l.757-.256c.125-.042.254-.068.386-.076 0 0 .86-.053.891-.053.1 0 .199.01.297.03l.783.158c.128.026.252.068.369.126l.715.354c.118.058.227.132.325.218l.599.528c.099.087.186.187.259.297l.441.666c.036.054.068.11.097.169l20.314 41.437a1.5 1.5 0 0 1 .075.181l.255.757c.042.125.067.254.076.385l.05.797c.008.131-.001.263-.027.392l-.158.783a1.504 1.504 0 0 1-.126.369l-.354.716a1.526 1.526 0 0 1-.219.326l-.528.599a1.483 1.483 0 0 1-.296.258l-.666.442c-.109.072-.226.13-.35.171l-.757.256a1.493 1.493 0 0 1-.386.076s-.86.053-.891.053z" fill="#ee4878"/><path d="m535.139 73.279.783.158.715.354.599.527.442.666 3.384 6.902 3.385 6.904 3.383 6.901 3.386 6.906 3.388 6.912 3.388 6.911.256.757.05.797-.158.783-.354.715-.528.599-.665.441-.757.256-.797.05-.783-.158-.715-.354-.599-.528-.442-.666-3.384-6.902-3.385-6.904-3.383-6.901-3.386-6.906-3.388-6.912-3.388-6.911-.256-.757-.05-.797.158-.783.354-.715.528-.599.666-.441.757-.256zm0-3a2.92 2.92 0 0 0-.187.006l-.797.05a3.001 3.001 0 0 0-.773.152l-.757.256a2.995 2.995 0 0 0-.698.342l-.666.441c-.22.146-.419.319-.593.517l-.528.599a3.04 3.04 0 0 0-.437.651l-.354.715a2.967 2.967 0 0 0-.252.738l-.158.783c-.052.257-.07.52-.054.782l.05.797c.017.263.068.523.152.773l.256.757c.042.123.091.243.148.36l3.388 6.911 3.388 6.911 3.386 6.907 3.383 6.9 3.385 6.904 3.384 6.903c.057.117.122.229.194.338l.442.666c.146.219.319.418.517.592l.599.528c.197.174.417.321.653.438l.715.354c.233.115.481.2.736.251l.783.158a2.97 2.97 0 0 0 .781.054l.797-.05c.263-.017.523-.067.773-.152l.757-.256c.246-.083.481-.198.698-.342l.666-.441c.22-.146.419-.319.593-.517l.528-.599c.174-.197.32-.416.437-.651l.354-.715c.116-.233.201-.481.252-.737l.158-.783c.052-.257.07-.521.054-.783l-.05-.797a2.994 2.994 0 0 0-.152-.772l-.256-.757a3.13 3.13 0 0 0-.148-.36l-3.388-6.911-3.388-6.911-3.386-6.907-3.383-6.9-3.385-6.905-3.384-6.902a2.983 2.983 0 0 0-.194-.338l-.441-.666a2.99 2.99 0 0 0-.518-.593l-.599-.527a2.994 2.994 0 0 0-.65-.436l-.715-.354a2.967 2.967 0 0 0-.738-.252l-.783-.158a2.85 2.85 0 0 0-.595-.062z" fill="#231f20"/><path d="M77.079 86.516a1.53 1.53 0 0 1-.384-.077l-.756-.258a1.471 1.471 0 0 1-.353-.175l-.663-.446a1.52 1.52 0 0 1-.292-.257l-.526-.601a1.51 1.51 0 0 1-.218-.328l-.352-.717a1.489 1.489 0 0 1-.125-.371l-.154-.783a1.494 1.494 0 0 1-.025-.389l.053-.797c.009-.131.035-.26.077-.384l.258-.756c.042-.125.101-.243.175-.353l.446-.663a1.47 1.47 0 0 1 .119-.154l30.492-34.639c.043-.049.089-.094.138-.137l.601-.526c.099-.087.209-.16.328-.219l.717-.352c.118-.058.243-.1.371-.125l.783-.154c.095-.019.192-.028.289-.028.033 0 .897.057.897.057.131.009.26.035.385.077l.756.258c.125.042.243.101.352.175l.663.446c.108.073.206.159.292.257l.526.601c.086.099.16.209.218.328l.352.717c.058.118.1.243.125.371l.154.783c.025.128.034.259.025.389l-.053.797a1.53 1.53 0 0 1-.077.385l-.258.756a1.492 1.492 0 0 1-.174.351l-.445.663a1.482 1.482 0 0 1-.119.155L81.204 85.032a1.498 1.498 0 0 1-.138.138l-.602.526c-.099.087-.209.16-.327.218l-.717.352c-.118.058-.243.1-.372.125l-.784.154a1.475 1.475 0 0 1-.289.028c-.033 0-.896-.057-.896-.057z" fill="#c3acf1"/><path d="m108.079 44.328.797.053.756.258.663.446.526.601.352.717.154.784-.053.796-.258.756-.446.663-5.079 5.77-5.081 5.772-5.078 5.769-5.082 5.773-5.086 5.778-5.086 5.777-.601.526-.717.352-.784.154-.797-.053-.756-.258-.663-.446-.526-.601-.352-.717-.154-.784.053-.796.258-.756.446-.663 5.079-5.771 5.081-5.771 5.078-5.769 5.082-5.773 5.086-5.778 5.086-5.777.601-.526.717-.352zm0-3c-.194 0-.387.019-.578.056l-.784.154a3.054 3.054 0 0 0-.743.25l-.717.352a2.97 2.97 0 0 0-.655.437l-.601.526c-.098.085-.19.177-.276.275l-5.086 5.777-5.086 5.778-5.082 5.773-5.078 5.769-5.081 5.771-5.079 5.771c-.086.097-.165.2-.237.308l-.446.663a2.999 2.999 0 0 0-.35.706l-.258.756a3 3 0 0 0-.154.768l-.053.796c-.017.26-.001.521.049.777l.154.784c.051.258.135.507.25.743l.352.717c.116.237.263.458.437.656l.526.601c.171.195.367.368.583.513l.663.446c.219.147.456.265.706.35l.756.258c.248.084.507.136.769.154l.797.053a3.035 3.035 0 0 0 .778-.049l.784-.154a3.04 3.04 0 0 0 .743-.25l.717-.352a2.97 2.97 0 0 0 .655-.437l.601-.526c.098-.085.19-.178.276-.275l5.086-5.777 5.086-5.778 5.082-5.773 5.078-5.769 5.081-5.772 5.079-5.77c.086-.098.165-.201.238-.309l.446-.663c.147-.219.265-.456.35-.706l.258-.756a3 3 0 0 0 .154-.768l.053-.796c.017-.26.001-.521-.049-.777l-.154-.784a3.04 3.04 0 0 0-.25-.743l-.352-.717a2.976 2.976 0 0 0-.437-.656l-.526-.601a2.968 2.968 0 0 0-.583-.513l-.663-.446a3.011 3.011 0 0 0-.705-.35l-.756-.258a3.052 3.052 0 0 0-.769-.154l-.797-.053c-.068-.003-.135-.006-.202-.006z" fill="#231f20"/><path d="m36.015 211.106 1.016 4.909 1.054 4.899 1.072 4.899 1.069 4.904 1.043 4.903.995 4.913 4.913.995 4.902 1.043 4.9 1.068 4.903 1.073 4.901 1.056 4.908 1.017-4.908 1.017-4.899 1.055-4.899 1.073-4.904 1.068-4.904 1.043-4.913.996-.995 4.912-1.042 4.902-1.068 4.9-1.073 4.904-1.057 4.9-1.019 4.908-1.015-5.012-1.055-5.004-1.072-5.003-1.069-5.009-1.043-5.007-.995-5.017-4.912-.891-4.902-.938-4.9-.964-4.904-.968-4.901-.952-4.908-.913 4.909-1.121 4.899-1.16 4.898-1.176 4.903-1.174 4.904-1.147 4.914-1.1.995-4.808 1.043-4.798 1.067-4.796 1.074-4.798 1.056-4.797z" fill="#fff"/><path d="m37.479 282.768-2.939-.007-2.068-10.004-3.185-15.023-.799-4.029-8.823-1.649-14.709-2.884-4.896-.912-.06-2.937 9.796-2.278 14.709-3.498 3.983-.892 1.844-8.672 4.215-19.187 2.936.007 2.068 9.796 3.185 14.709.8 3.953 8.854 1.843 14.708 3.198 4.897 1.015v2.938l-9.796 2.07-14.711 3.185-3.952.8-1.843 8.854zM7.644 246.637l17.487 3.41 4.897.888 1.204 1.184 2.035 10.011 2.761 12.952 3.774-17.444.992-4.898 1.172-1.172 9.802-2.035 12.614-2.747-17.517-3.789-4.899-.992-1.172-1.172-2.035-9.802-2.762-12.689-3.775 17.077-.992 4.794-1.141 1.16-9.803 2.244z" fill="#231f20"/><path d="m383.68 288.87-.279-2.127-.821-1.982-1.307-1.701-1.702-1.307-1.981-.822-2.128-.278-2.127.278-1.982.822-1.702 1.307-1.307 1.701-.821 1.982-.278 2.127.278 2.128.822 1.982 1.307 1.701 1.701 1.307 1.982.822 2.127.278 2.128-.278 1.982-.822 1.701-1.307 1.307-1.702.822-1.981z" fill="#ee4878"/><path d="M375.657 298.575h-.389l-2.127-.278-.38-.102-1.982-.821-.34-.196-1.701-1.307-.276-.275-1.307-1.701-.196-.339-.822-1.982-.102-.38-.278-2.127v-.389l.278-2.128.102-.38.822-1.981.196-.339 1.307-1.701.276-.276 1.701-1.307.339-.196 1.982-.822.38-.102 2.127-.278h.389l2.127.278.38.102 1.982.821.34.196 1.701 1.307.276.275 1.307 1.701.196.339.822 1.982.102.38.278 2.128v.389l-.278 2.127-.102.38-.822 1.981-.196.339-1.307 1.701-.276.275-1.701 1.307-.339.196-1.982.822-.38.102zm-1.931-3.227 1.736.227 1.736-.227 1.616-.67 1.388-1.067 1.067-1.389.67-1.615.227-1.736-.227-1.737-.67-1.616-1.067-1.389-1.389-1.067-1.616-.67-1.736-.227-1.736.227-1.616.67-1.388 1.067-1.067 1.389-.67 1.615-.227 1.737.227 1.736.67 1.616 1.067 1.389 1.388 1.067z" fill="#231f20"/><path d="m619.343 143.531-.279-2.128-.821-1.982-1.307-1.701-1.702-1.307-1.981-.821-2.128-.279-2.127.279-1.982.821-1.702 1.307-1.307 1.702-.821 1.981-.278 2.128.278 2.127.822 1.982 1.307 1.702 1.701 1.307 1.982.821 2.127.278 2.128-.278 1.982-.822 1.701-1.307 1.307-1.701.821-1.982z" fill="#7248ee"/><path d="M611.32 153.235h-.389l-2.127-.278-.38-.102-1.982-.822-.339-.196-1.701-1.307-.276-.275-1.307-1.701-.196-.339-.822-1.982-.102-.38-.278-2.128v-.389l.278-2.127.102-.38.822-1.981.196-.339 1.307-1.701.276-.275 1.701-1.307.339-.196 1.982-.822.38-.102 2.128-.278h.389l2.127.278.38.102 1.982.821.34.196 1.701 1.307.276.275 1.307 1.701.196.339.822 1.982.102.38.278 2.127v.389l-.278 2.127-.102.38-.822 1.982-.196.339-1.307 1.701-.276.276-1.701 1.307-.339.196-1.982.822-.38.102zm-1.931-3.226 1.736.227 1.736-.227 1.616-.67 1.388-1.067 1.067-1.388.67-1.616.227-1.736-.227-1.736-.67-1.616-1.067-1.389-1.388-1.067-1.616-.67-1.736-.227-1.736.227-1.616.67-1.388 1.067-1.067 1.389-.67 1.615-.227 1.736.227 1.737.67 1.616 1.067 1.389 1.389 1.066z" fill="#231f20"/><path d="m184.096 47.305-.159-1.216-.47-1.132-.747-.972-.972-.747-1.132-.469-1.216-.159-1.216.159-1.133.469-.972.747-.746.972-.47 1.133-.159 1.215.16 1.217.469 1.132.747.972.972.747 1.132.469 1.216.159 1.216-.159 1.133-.47.972-.747.746-.972.47-1.132z" fill="#cae062"/><path d="m179.206 53.488-1.216-.159-.381-.102-1.132-.47-.339-.196-.972-.747-.276-.275-.747-.972-.196-.339-.47-1.133-.102-.38-.159-1.216v-.389l.159-1.215.102-.38.47-1.132.196-.339.747-.972.276-.276.972-.747.339-.196 1.133-.47.381-.102 1.216-.159h.388l1.216.159.38.102 1.132.469.34.196.972.747.275.275.747.972.196.339.47 1.132.102.38.159 1.216v.389l-.159 1.216-.102.38-.47 1.132-.196.339-.747.972-.276.276-.972.747-.339.196-1.132.47-.38.102-1.216.159h-.389zm-.63-3.107.824.107.825-.108.767-.318.659-.506.506-.659.318-.767.108-.825-.108-.825-.318-.766-.507-.659-.659-.507-.766-.317-.825-.108-.825.108-.766.317-.659.507-.507.66-.318.767-.108.824.108.825.318.767.507.659.66.506z" fill="#231f20"/><path d="m259.583 276.041-.159-1.217-.47-1.132-.747-.972-.972-.747-1.132-.469-1.216-.159-1.216.159-1.133.47-.971.747-.747.972-.47 1.132-.158 1.216.159 1.216.469 1.133.747.972.972.746 1.133.47 1.215.158 1.217-.159 1.132-.469.972-.747.747-.972.469-1.132z" fill="#cae062"/><path d="M255.081 282.224h-.388l-1.216-.159-.38-.102-1.132-.469-.34-.196-.972-.747-.276-.275-.747-.972-.196-.339-.47-1.132-.102-.38-.159-1.216v-.389l.159-1.216.102-.38.469-1.132.196-.339.747-.972.276-.276.972-.747.339-.196 1.132-.47.38-.102 1.216-.159h.389l1.216.159.381.102 1.133.47.339.196.972.747.275.275.747.972.196.339.47 1.133.102.38.159 1.216v.389l-.159 1.215-.102.38-.47 1.132-.196.339-.747.972-.276.276-.972.747-.339.196-1.133.47-.381.102zm-1.019-3.108.825.108.825-.108.766-.317.659-.507.507-.66.318-.767.108-.824-.108-.825-.318-.767-.507-.659-.659-.506-.767-.318-.824-.107-.825.108-.767.318-.659.506-.507.659-.318.767-.108.825.108.825.318.766.507.66.659.506z" fill="#231f20"/><path d="m36.013 491.009-.159-1.216-.47-1.133-.747-.972-.972-.746-1.132-.47-1.216-.159-1.216.16-1.133.469-.972.747-.746.972-.47 1.132-.159 1.216.159 1.216.47 1.133.747.972.972.746 1.132.47 1.216.159 1.216-.159 1.133-.47.972-.747.746-.972.47-1.132z" fill="#cae062"/><path d="M31.511 497.192h-.388l-1.216-.159-.38-.102-1.132-.469-.34-.196-.972-.747-.276-.275-.747-.972-.196-.339-.469-1.132-.102-.38-.159-1.216v-.389l.159-1.216.102-.38.469-1.132.196-.339.747-.972.276-.276.972-.747.339-.196 1.132-.47.38-.102 1.217-.159h.389l1.216.159.381.102 1.132.47.339.196.972.747.275.275.747.972.197.34.469 1.133.102.379.159 1.216v.389l-.159 1.215-.102.38-.47 1.132-.196.339-.747.972-.276.276-.972.747-.339.196-1.132.47-.381.102zm-1.019-3.108.825.108.825-.108.766-.317.659-.507.507-.66.318-.767.108-.824-.108-.825-.318-.767-.507-.659-.659-.506-.766-.318-.824-.107-.825.108-.767.318-.659.506-.506.659-.318.767-.108.825.108.825.318.766.507.66.659.506z" fill="#231f20"/><path d="m605.256 98.606-.16-1.216-.469-1.133-.747-.972-.972-.746-1.132-.47-1.216-.159-1.216.16-1.133.469-.972.747-.746.972-.47 1.132-.159 1.216.159 1.216.47 1.133.747.972.972.746 1.132.47 1.216.159 1.216-.159 1.133-.47.972-.747.746-.972.47-1.132z" fill="#cae062"/><path d="m600.366 104.789-1.216-.159-.381-.102-1.132-.47-.339-.196-.972-.747-.275-.275-.747-.972-.197-.339-.469-1.132-.102-.38-.159-1.217v-.389l.159-1.215.102-.38.47-1.132.196-.339.747-.972.276-.276.972-.747.34-.196 1.132-.469.38-.102 1.217-.159h.389l1.216.159.38.102 1.132.469.34.196.972.747.275.275.747.972.197.339.469 1.132.102.38.159 1.216v.389l-.159 1.216-.102.38-.469 1.132-.196.339-.747.972-.276.276-.972.747-.339.196-1.132.47-.38.102-1.216.159zm-.631-3.107.824.107.825-.108.767-.318.659-.506.506-.659.318-.767.108-.825-.108-.825-.318-.766-.507-.659-.659-.507-.766-.317-.824-.108-.826.108-.766.318-.659.506-.507.66-.318.767-.108.824.108.826.318.766.507.659.659.506z" fill="#231f20"/><path d="m564.258 458.863-.87-4.159-2.04-3.746-2.743-3.272-3.272-2.744-3.748-2.04-4.159-.871 4.159-.871 3.746-2.04 3.272-2.743 2.744-3.272 2.04-3.747.871-4.159.871 4.158 2.04 3.746 2.743 3.272 3.272 2.744 3.747 2.041 4.159.871-4.158.87-3.746 2.04-3.272 2.743-2.744 3.272-2.041 3.748z" fill="#fff"/><path d="m562.79 459.17-.825-3.942-1.863-3.42-2.562-3.056-3.056-2.563-3.422-1.864-3.943-.825v-2.937l3.943-.825 3.42-1.862 3.056-2.563 2.563-3.056 1.864-3.422.825-3.943h2.937l.825 3.942 1.863 3.421 2.562 3.056 3.056 2.562 3.422 1.864 3.943.825v2.937l-3.943.825-3.421 1.863-3.056 2.562-2.563 3.056-1.864 3.421-.825 3.943h-2.936zm-9.667-17.139 3.174 1.762 3.457 2.929 2.911 3.519 1.593 2.925 1.762-3.173 2.929-3.458 3.518-2.911 2.926-1.593-3.174-1.762-3.458-2.929-2.911-3.519-1.593-2.926-1.762 3.174-2.929 3.457-3.519 2.912z" fill="#231f20"/><path d="m98.46 552.339-1.446-6.907-3.387-6.22-4.555-5.432-5.433-4.556-6.222-3.389-6.906-1.446 6.906-1.446 6.22-3.387 5.433-4.555 4.556-5.433 3.388-6.222 1.446-6.906 1.446 6.907 3.387 6.219 4.555 5.433 5.433 4.556 6.222 3.389 6.906 1.445-6.906 1.446-6.22 3.388-5.433 4.555-4.556 5.433-3.388 6.222z" fill="#fff"/><path d="m96.992 552.646-1.401-6.691-3.21-5.894-4.374-5.217-5.217-4.375-5.896-3.211-6.69-1.4v-2.937l6.69-1.401 5.894-3.21 5.217-4.375 4.375-5.217 3.211-5.896 1.4-6.69h2.937l1.401 6.691 3.21 5.894 4.374 5.218 5.217 4.375 5.896 3.211 6.69 1.4v2.937l-6.691 1.4-5.894 3.21-5.217 4.375-4.375 5.217-3.211 5.896-1.4 6.69zM77.785 524.39l.35.128 6.468 3.557 5.618 4.741 4.723 5.679 3.387 6.22.129.35.128-.349 3.557-6.469 4.741-5.618 5.679-4.723 6.22-3.387.349-.128-.349-.128-6.469-3.557-5.618-4.741-4.723-5.68-3.387-6.22-.129-.35-.128.349-3.557 6.469-4.741 5.618-5.679 4.723-6.22 3.387z" fill="#231f20"/><path d="m510.253 516.041-1.446-6.906-3.387-6.22-4.555-5.433-5.433-4.556-6.222-3.388-6.906-1.446 6.907-1.446 6.219-3.387 5.433-4.555 4.556-5.433 3.389-6.222 1.445-6.906 1.446 6.906 3.387 6.22 4.556 5.433 5.432 4.556 6.223 3.388 6.906 1.446-6.907 1.446-6.22 3.387-5.432 4.555-4.556 5.433-3.389 6.222z" fill="#fff"/><path d="m508.785 516.349-1.401-6.691-3.21-5.894-4.374-5.217-5.217-4.375-5.896-3.211-6.69-1.4v-2.937l6.69-1.4 5.894-3.21 5.217-4.375 4.375-5.217 3.211-5.896 1.4-6.69h2.937l1.401 6.691 3.21 5.894 4.374 5.217 5.217 4.375 5.896 3.211 6.69 1.4v2.937l-6.69 1.401-5.894 3.21-5.217 4.375-4.375 5.217-3.211 5.896-1.4 6.69zm-19.206-28.257.349.128 6.469 3.557 5.618 4.741 4.723 5.68 3.387 6.22.129.35.128-.349 3.557-6.469 4.741-5.618 5.679-4.723 6.22-3.387.35-.129-.35-.128-6.469-3.557-5.618-4.741-4.723-5.679-3.387-6.22-.129-.35-.128.349-3.557 6.469-4.741 5.618-5.679 4.723-6.22 3.387z" fill="#231f20"/></svg></g></svg>