<?xml version="1.0" encoding="UTF-8"?>
<svg xmlns="http://www.w3.org/2000/svg" xmlns:xlink="http://www.w3.org/1999/xlink" width="883px" height="400px" viewBox="0 0 881 400" version="1.1">
<g id="surface1">
<path style="fill-rule:nonzero;fill:rgb(12.156863%,12.54902%,100%);fill-opacity:1;stroke-width:1;stroke-linecap:butt;stroke-linejoin:miter;stroke:rgb(12.156863%,12.54902%,100%);stroke-opacity:1;stroke-miterlimit:4;" d="M 689.349862 248.927766 C 686.928466 250.405312 685.510219 252.643234 683.183949 258.674391 C 681.523563 262.977422 672.702763 285.780031 663.583612 309.343016 C 654.339068 333.225703 647.014344 353.578695 647.03164 355.341383 C 647.083527 360.331344 651.039916 363.999289 656.379959 363.999289 C 662.044296 363.999289 663.164192 361.735445 683.516891 309.148602 C 694.231569 281.451078 703.000482 257.685039 703.000482 256.332781 C 703.000482 252.798766 701.370364 250.245461 698.019325 248.508695 C 694.240217 246.555914 693.154913 246.607758 689.349862 248.927766 M 697.785833 255.503281 C 698.205253 258.423812 659.769913 357.112711 657.707403 358.413125 C 655.558414 359.769703 652.626795 358.136625 652.207374 355.354344 C 651.978207 353.833594 688.593175 257.084516 690.672982 253.718992 C 690.954037 253.261039 692.610099 253.023422 694.343991 253.191914 C 696.609726 253.41225 697.582609 254.064617 697.785833 255.503281 " transform="matrix(0.903404,0,0,0.904159,0,0)"/>
<path style="fill-rule:nonzero;fill:rgb(12.156863%,12.54902%,100%);fill-opacity:1;stroke-width:1;stroke-linecap:butt;stroke-linejoin:miter;stroke:rgb(12.156863%,12.54902%,100%);stroke-opacity:1;stroke-miterlimit:4;" d="M 172.498531 115.209773 C 169.411251 116.981102 168.066512 119.210383 168.03192 122.62343 C 167.993005 126.576516 195.302894 188.542758 198.584751 191.951484 C 203.289178 196.833437 211.98026 193.925867 213.510929 186.948562 C 214.345446 183.155328 186.084293 118.998687 182.253299 115.983109 C 179.447074 113.77543 175.538248 113.464367 172.498531 115.209773 M 180.394012 121.24957 C 181.18529 122.4895 187.947904 137.364336 195.41964 154.312922 C 206.497528 179.439859 208.81515 185.479656 207.967661 187.060891 C 206.800202 189.242648 202.748688 189.657398 201.291526 187.752141 C 199.536014 185.445094 173.000106 124.792227 173.000106 123.085703 C 173.000106 118.886359 178.07639 117.629148 180.394012 121.24957 " transform="matrix(0.903404,0,0,0.904159,0,0)"/>
<path style="fill-rule:nonzero;fill:rgb(12.156863%,12.54902%,100%);fill-opacity:1;stroke-width:1;stroke-linecap:butt;stroke-linejoin:miter;stroke:rgb(12.156863%,12.54902%,100%);stroke-opacity:1;stroke-miterlimit:4;" d="M 139.740501 262.420102 C 132.926 264.869719 129.998705 269.017219 130.003029 276.201898 C 130.011677 284.445055 136.160294 290.316359 144.786517 290.32932 C 149.650929 290.333641 153.274376 288.121641 156.750809 283.010711 C 160.87583 276.944992 158.834939 268.745039 151.998819 263.91925 C 148.418612 261.391867 144.07307 260.860469 139.740501 262.420102 M 151.510216 270.196664 C 154.813692 274.119508 154.722889 278.189242 151.25078 281.930633 C 145.210262 288.437023 134.966891 284.760437 135.023102 276.102531 C 135.049046 271.687172 137.569892 268.20932 141.504661 267.155164 C 145.845878 265.99732 148.708314 266.865703 151.510216 270.196664 " transform="matrix(0.903404,0,0,0.904159,0,0)"/>
<path style="fill-rule:nonzero;fill:rgb(12.156863%,12.54902%,100%);fill-opacity:1;stroke-width:1;stroke-linecap:butt;stroke-linejoin:miter;stroke:rgb(12.156863%,12.54902%,100%);stroke-opacity:1;stroke-miterlimit:4;" d="M 766.272428 135.964555 C 760.932385 138.38825 758.00509 143.002344 758.00509 148.998937 C 758.00509 165.316758 780.947819 168.80325 786.07599 153.271727 C 788.449823 146.074086 783.568115 137.083516 776.169885 135.031367 C 771.383304 133.700711 771.223319 133.717992 766.272428 135.964555 M 779.149067 142.656719 C 782.573613 146.303062 782.344445 152.446547 778.673436 155.604695 C 772.356186 161.035328 762.99922 157.255055 762.99922 149.266797 C 762.99922 144.428047 765.200096 141.265578 769.29485 140.202781 C 773.670658 139.070859 776.420673 139.753469 779.149067 142.656719 " transform="matrix(0.903404,0,0,0.904159,0,0)"/>
<path style="fill-rule:nonzero;fill:rgb(12.156863%,12.54902%,100%);fill-opacity:1;stroke-width:1;stroke-linecap:butt;stroke-linejoin:miter;stroke:rgb(12.156863%,12.54902%,100%);stroke-opacity:1;stroke-miterlimit:4;" d="M 806.497872 257.944258 C 798.922361 260.04393 796.591767 267.747047 801.923163 273.078312 C 807.505345 278.660156 816.391005 275.756906 817.63197 267.945781 C 818.596205 261.897344 812.378405 256.3155 806.497872 257.944258 " transform="matrix(0.903404,0,0,0.904159,0,0)"/>
<path style="fill-rule:nonzero;fill:rgb(12.156863%,12.54902%,100%);fill-opacity:1;stroke-width:1;stroke-linecap:butt;stroke-linejoin:miter;stroke:rgb(12.156863%,12.54902%,100%);stroke-opacity:1;stroke-miterlimit:4;" d="M 219.655221 330.132359 C 218.643424 330.719922 217.17329 332.733187 216.394984 334.603883 C 215.166991 337.541695 215.166991 338.461922 216.403632 341.421336 C 220.264894 350.658164 234.001993 347.992531 234.001993 337.999648 C 234.001993 330.992102 225.860049 326.524898 219.655221 330.132359 " transform="matrix(0.903404,0,0,0.904159,0,0)"/>
</g>
</svg>
