<?xml version="1.0" encoding="utf-8"?>
<!DOCTYPE svg PUBLIC "-//W3C//DTD SVG 20010904//EN" "http://www.w3.org/TR/2001/REC-SVG-20010904/DTD/svg10.dtd">
<svg version="1.0" xmlns="http://www.w3.org/2000/svg" width="307pt" height="285pt" viewBox="0 0 307 285" style="" preserveAspectRatio="xMidYMid meet">
<g fill="#231F20FF" stroke="#231F20FF">
<path d="M 149.992 17.250 C 149.461 18.488 147.276 26.475 145.136 35.000 C 141.486 49.536 140.717 51.442 132.760 65.654 C 124.568 80.287 123.840 81.231 111.534 93.154 C 100.286 104.051 97.055 106.521 83.993 114.197 C 68.474 123.319 67.911 123.523 44.210 128.634 L 30.920 131.500 31.210 136.880 L 31.500 142.259 38.500 144.016 C 42.350 144.982 50.644 146.998 56.930 148.496 C 67.194 150.942 69.891 152.101 83.367 159.860 C 96.889 167.646 99.641 169.726 111.189 180.902 C 123.645 192.954 124.251 193.741 132.703 208.834 C 140.920 223.508 141.626 225.251 145.505 240.462 C 147.763 249.316 149.949 257.109 150.364 257.780 C 151.353 259.381 159.477 259.357 160.728 257.750 C 161.264 257.063 162.945 251.775 164.465 246.000 C 169.632 226.368 170.929 223.013 179.068 208.254 C 186.964 193.934 187.576 193.142 199.852 181.338 C 211.163 170.462 214.139 168.225 228.000 160.189 C 243.310 151.313 243.711 151.150 260.750 146.928 L 278.000 142.653 278.000 136.986 L 278.000 131.318 272.250 130.071 C 247.226 124.641 243.677 123.419 229.912 115.489 C 213.197 105.859 212.957 105.678 198.730 91.867 C 187.534 80.997 186.653 79.834 178.603 65.273 C 170.781 51.127 169.885 48.891 165.966 33.773 C 163.647 24.823 161.300 16.938 160.752 16.250 C 160.204 15.563 157.776 15.000 155.356 15.000 C 151.747 15.000 150.784 15.404 149.992 17.250 M 157.990 47.500 C 159.285 52.542 163.417 60.905 173.092 78.067 C 177.508 85.902 180.473 89.486 191.430 100.241 C 203.357 111.947 205.966 113.949 221.268 123.134 C 231.962 129.553 240.113 133.741 243.768 134.693 C 252.737 137.031 252.905 137.530 245.359 139.420 C 240.518 140.634 233.835 143.839 222.641 150.320 C 207.941 158.830 205.735 160.508 192.440 173.305 L 178.098 187.110 169.016 203.472 C 163.965 212.571 159.260 222.423 158.415 225.667 C 157.580 228.875 156.535 231.862 156.094 232.305 C 155.652 232.747 154.741 230.947 154.070 228.305 C 152.325 221.439 150.866 218.341 141.341 201.285 C 133.151 186.621 132.405 185.649 120.704 174.420 C 105.866 160.179 105.960 160.250 87.753 149.628 C 77.806 143.825 70.888 140.492 66.503 139.390 C 62.926 138.492 60.000 137.399 60.000 136.961 C 60.000 136.263 68.460 134.000 71.069 134.000 C 71.603 134.000 79.482 129.671 88.579 124.380 C 103.998 115.411 106.064 113.844 119.075 101.252 C 132.959 87.814 133.080 87.659 142.410 71.122 C 148.425 60.463 152.365 52.229 153.395 48.169 C 154.278 44.687 155.000 41.560 155.000 41.219 C 155.000 39.256 156.894 43.234 157.990 47.500 "/></g>
</svg>
