<?xml version="1.0" encoding="utf-8"?>
<!DOCTYPE svg PUBLIC "-//W3C//DTD SVG 20010904//EN" "http://www.w3.org/TR/2001/REC-SVG-20010904/DTD/svg10.dtd">
<svg version="1.0" xmlns="http://www.w3.org/2000/svg" width="285pt" height="159pt" viewBox="0 0 285 159" style="" preserveAspectRatio="xMidYMid meet">
<g fill="#FECE2FFF" stroke="#FECE2FFF">
<path d="M 154.000 18.603 C 142.217 21.756 132.670 30.056 127.210 41.892 C 125.194 46.265 124.593 49.571 124.034 59.392 C 123.230 73.520 121.927 77.234 116.063 82.104 L 111.864 85.592 117.493 87.366 C 122.283 88.876 123.075 89.465 122.810 91.320 C 122.528 93.300 122.042 93.459 117.500 93.048 C 105.863 91.995 104.808 92.204 102.567 96.000 C 100.973 98.700 100.500 101.215 100.500 107.000 C 100.500 113.369 100.928 115.272 103.338 119.620 C 109.384 130.526 118.919 136.879 132.435 139.006 C 141.049 140.362 147.325 139.674 162.000 135.765 C 177.480 131.641 182.570 131.760 197.010 136.581 C 208.199 140.316 208.880 140.417 223.000 140.440 C 236.695 140.462 237.889 140.305 244.500 137.597 C 269.143 127.505 282.442 103.686 273.564 85.540 C 270.085 78.430 265.802 75.388 249.606 68.521 C 234.933 62.300 230.668 59.361 209.392 40.805 C 193.170 26.657 183.440 20.623 173.417 18.500 C 164.893 16.694 161.058 16.715 154.000 18.603 M 180.020 109.510 C 185.768 112.483 186.677 118.477 182.077 123.077 C 180.082 125.072 178.152 126.000 176.000 126.000 C 172.324 126.000 167.000 121.341 167.000 118.124 C 167.000 114.529 169.372 110.748 172.476 109.396 C 176.349 107.708 176.541 107.711 180.020 109.510 "/></g>
<g fill="#231F20FF" stroke="#231F20FF">
<path d="M 64.155 31.750 C 63.547 36.563 62.504 45.803 61.837 52.285 C 60.950 60.900 60.290 63.941 59.381 63.593 C 58.340 63.193 33.452 47.898 26.322 43.276 C 24.365 42.008 24.033 42.069 23.063 43.882 C 22.101 45.679 23.623 47.512 36.961 60.627 L 51.940 75.355 45.220 77.669 C 14.063 88.402 12.000 89.233 12.000 91.054 C 12.000 93.659 12.774 93.860 19.500 93.005 C 22.800 92.585 30.225 91.722 36.000 91.086 C 41.775 90.451 48.393 89.697 50.706 89.411 L 54.912 88.891 50.869 100.195 C 41.614 126.076 40.939 128.343 42.249 129.175 C 44.430 130.560 45.448 130.068 47.500 126.639 C 48.600 124.802 53.506 116.926 58.403 109.138 L 67.306 94.977 71.447 101.238 C 73.724 104.682 78.718 112.557 82.544 118.737 C 86.370 124.917 89.950 129.973 90.500 129.972 C 94.116 129.963 93.812 128.105 87.057 108.964 C 83.280 98.259 80.279 89.405 80.389 89.289 C 80.669 88.993 104.949 91.528 115.500 92.956 C 122.232 93.867 123.000 93.669 123.000 91.021 C 123.000 89.655 121.604 88.717 117.750 87.492 C 114.863 86.575 111.150 85.245 109.500 84.538 C 107.850 83.830 101.225 81.507 94.777 79.375 L 83.054 75.500 98.047 60.468 C 111.157 47.324 112.880 45.226 111.770 43.761 C 110.626 42.253 108.711 43.206 92.500 53.354 L 74.500 64.623 73.804 58.561 C 73.422 55.228 72.347 45.863 71.417 37.750 C 69.801 23.662 69.625 23.000 67.493 23.000 C 65.439 23.000 65.174 23.694 64.155 31.750 M 71.688 69.745 C 73.057 70.759 73.842 70.676 75.934 69.294 C 77.345 68.362 81.200 66.000 84.500 64.045 L 90.500 60.490 83.658 67.647 C 79.211 72.299 76.937 75.451 77.162 76.652 C 77.413 77.996 80.370 79.526 88.004 82.261 C 96.581 85.335 97.677 85.937 94.000 85.553 C 71.862 83.243 72.792 82.566 77.822 97.323 L 81.500 108.115 75.500 98.568 C 71.163 91.667 68.946 89.023 67.500 89.030 C 66.089 89.036 63.881 91.558 60.000 97.599 L 54.500 106.160 57.675 96.330 C 61.831 83.461 61.782 83.404 47.956 84.908 C 42.311 85.523 37.555 85.889 37.389 85.722 C 37.222 85.555 41.679 83.862 47.293 81.960 C 60.273 77.560 60.441 76.916 51.064 67.500 L 44.093 60.500 49.796 63.740 C 52.933 65.521 56.884 67.878 58.576 68.977 C 63.595 72.238 64.717 70.477 66.203 57.000 L 67.472 45.500 68.740 57.000 C 69.683 65.549 70.440 68.819 71.688 69.745 "/></g>
<g fill="#231F20FF" stroke="#231F20FF">
<path d="M 172.421 109.419 C 168.872 110.964 166.479 115.730 167.521 119.176 C 168.762 123.280 172.979 126.166 176.951 125.631 C 185.958 124.417 187.799 112.903 179.538 109.452 C 175.465 107.750 176.246 107.753 172.421 109.419 M 179.388 115.250 C 181.570 118.715 176.653 122.617 173.452 119.960 C 171.473 118.317 171.624 115.321 173.750 114.067 C 176.071 112.697 178.040 113.110 179.388 115.250 "/></g>
</svg>
