<svg xmlns="http://www.w3.org/2000/svg" viewBox="0 0 300 150" width="300" height="150"><g transform="translate(589.0 2520.0) rotate(0.0 60.0 60.0) scale(5.235145275281389 5.235145275281389)"><svg width="22.922" height="22.922" viewBox="0 0 22.922 22.922"><path d="m22.422 11.307-3.648.607a7.949 7.949 0 0 0-6.549 6.612l-.61 3.897-.65-3.805a7.948 7.948 0 0 0-6.847-6.548L.5 11.615l3.462-.511a7.948 7.948 0 0 0 6.681-6.572L11.307.5l.827 4.079a7.949 7.949 0 0 0 6.836 6.311z" fill="#fff"/><path d="M11.615 22.922a.5.5 0 0 1-.493-.416l-.65-3.805a7.403 7.403 0 0 0-6.417-6.136l-3.618-.453a.5.5 0 0 1-.01-.992l3.462-.511a7.424 7.424 0 0 0 6.261-6.158l.663-4.032A.5.5 0 0 1 11.297 0a.481.481 0 0 1 .499.401l.827 4.079a7.436 7.436 0 0 0 6.406 5.914l3.451.417a.5.5 0 0 1 .022.989l-3.648.607a7.436 7.436 0 0 0-6.137 6.196l-.61 3.896a.5.5 0 0 1-.49.423h-.002zM4.194 11.573a8.398 8.398 0 0 1 7.264 6.958l.135.792.137-.877a8.435 8.435 0 0 1 6.961-7.028l.21-.035a8.436 8.436 0 0 1-7.258-6.707l-.286-1.41-.221 1.344a8.416 8.416 0 0 1-6.942 6.963z"/></svg></g><g transform="translate(589.0 2520.0) rotate(0.0 60.0 60.0) scale(5.235145275281389 5.235145275281389)"><svg width="22.922" height="22.922" viewBox="0 0 22.922 22.922"><path d="m22.422 11.307-3.648.607a7.949 7.949 0 0 0-6.549 6.612l-.61 3.897-.65-3.805a7.948 7.948 0 0 0-6.847-6.548L.5 11.615l3.462-.511a7.948 7.948 0 0 0 6.681-6.572L11.307.5l.827 4.079a7.949 7.949 0 0 0 6.836 6.311z" fill="#fff"/><path d="M11.615 22.922a.5.5 0 0 1-.493-.416l-.65-3.805a7.403 7.403 0 0 0-6.417-6.136l-3.618-.453a.5.5 0 0 1-.01-.992l3.462-.511a7.424 7.424 0 0 0 6.261-6.158l.663-4.032A.5.5 0 0 1 11.297 0a.481.481 0 0 1 .499.401l.827 4.079a7.436 7.436 0 0 0 6.406 5.914l3.451.417a.5.5 0 0 1 .022.989l-3.648.607a7.436 7.436 0 0 0-6.137 6.196l-.61 3.896a.5.5 0 0 1-.49.423h-.002zM4.194 11.573a8.398 8.398 0 0 1 7.264 6.958l.135.792.137-.877a8.435 8.435 0 0 1 6.961-7.028l.21-.035a8.436 8.436 0 0 1-7.258-6.707l-.286-1.41-.221 1.344a8.416 8.416 0 0 1-6.942 6.963z"/></svg></g><g transform="translate(593.0 2524.0) rotate(0.0 60.0 60.0) scale(5.235145275281389 5.235145275281389)"><svg width="22.922" height="22.922" viewBox="0 0 22.922 22.922"><path d="m22.422 11.307-3.648.607a7.949 7.949 0 0 0-6.549 6.612l-.61 3.897-.65-3.805a7.948 7.948 0 0 0-6.847-6.548L.5 11.615l3.462-.511a7.948 7.948 0 0 0 6.681-6.572L11.307.5l.827 4.079a7.949 7.949 0 0 0 6.836 6.311z" fill="#fff"/><path d="M11.615 22.922a.5.5 0 0 1-.493-.416l-.65-3.805a7.403 7.403 0 0 0-6.417-6.136l-3.618-.453a.5.5 0 0 1-.01-.992l3.462-.511a7.424 7.424 0 0 0 6.261-6.158l.663-4.032A.5.5 0 0 1 11.297 0a.481.481 0 0 1 .499.401l.827 4.079a7.436 7.436 0 0 0 6.406 5.914l3.451.417a.5.5 0 0 1 .022.989l-3.648.607a7.436 7.436 0 0 0-6.137 6.196l-.61 3.896a.5.5 0 0 1-.49.423h-.002zM4.194 11.573a8.398 8.398 0 0 1 7.264 6.958l.135.792.137-.877a8.435 8.435 0 0 1 6.961-7.028l.21-.035a8.436 8.436 0 0 1-7.258-6.707l-.286-1.41-.221 1.344a8.416 8.416 0 0 1-6.942 6.963z"/></svg></g><g transform="translate(525.0 2775.0) rotate(0.0 198.5 9.5) scale(1.3520647083865476 1.3013698630136987)"><svg width="293.625" height="14.6" viewBox="0 0 293.625 14.6"><path d="M71.425 14.6c-6 0-9.8-2-13.9-4.2-4.4-2.3-9.3-4.9-18.1-5.6-15.7-1.3-38.2 6.6-38.4 6.7-.4.1-.9-.1-1-.5s.1-.9.5-1c.9-.3 23-8.2 39.1-6.8 9.1.8 14.2 3.5 18.7 5.8 5.8 3 10.3 5.4 21.3 3 4.8-1.1 9.4-2.4 13.9-3.7 14.3-4.1 27.8-8 44.8-3.1 22 6.3 32.1 7.4 52.2 1.6 28.4-8.7 39.1-4.2 50.4.6l1.7.7c6.3 2.6 15.3-.1 24.8-3 8.2-2.5 16.8-5.1 25.4-5.1.4 0 .8.4.8.8s-.4.8-.8.8c-8.4 0-16.8 2.6-25 5-9.7 3-19 5.8-25.8 2.9l-1.7-.7c-11-4.6-21.4-9-49.3-.5-20.6 5.9-30.8 4.8-53.1-1.6-16.6-4.8-29.9-.9-43.9 3.1-4.5 1.3-9.1 2.7-14 3.7-3.4.8-6.2 1.1-8.6 1.1z" fill="#333"/></svg></g><g transform="translate(57.0 73.0) rotate(0.0 98.0 4.5) scale(0.16267382652828324 0.16260162601626016)"><svg width="1204.865" height="55.35" viewBox="0 0 1204.865 55.35"><path d="M258.79 55.311c-89.588.001-178.306-8.768-254.096-35.206A7 7 0 0 1 9.305 6.886c159.787 55.74 380.452 31.212 541.574 13.304 35.858-3.986 69.728-7.75 99.045-10.187 259.091-21.532 545.58-1.403 548.443-1.197a7 7 0 1 1-1.004 13.964c-2.853-.205-288.295-20.255-546.28 1.185-29.123 2.42-62.899 6.174-98.658 10.149-86.82 9.65-190.799 21.206-293.635 21.207z" fill="#1d1d1b"/></svg></g></svg>