<svg xmlns="http://www.w3.org/2000/svg" viewBox="0 0 400 400" width="400" height="400"><g transform="translate(-8.0 169.0) rotate(28.65869829189062 71.5 38.5) scale(0.11006265104751936 0.11029480225001397)"><svg width="1299.26" height="698.129" viewBox="0 0 1299.26 698.129"><path d="M673.631 0C404.819 0 0 182.408 0 452.394c0 235.638 217.61 245.735 321.615 245.735 164.808 0 184.617-121.523 333.241-121.523 162.89 0 186.783 121.523 425.194 121.523 115.205 0 219.21-83.314 219.21-241.115S1062.449 0 673.631 0z" fill="#fece2f"/></svg></g><g transform="translate(334.0 -244.0) rotate(0.0 -586.5 398.0) translate(-115.0 314.0) scale(-1.4012679503857965 1.3992701294500656)"><svg width="232.646" height="149.364" viewBox="82.069 224.403 232.646 149.364"><path d="M755.326 457.416a1.488 1.488 0 0 1-.386-.067l-.762-.239a1.51 1.51 0 0 1-.357-.167l-.674-.429c-.11-.07-.21-.154-.298-.25l-.541-.588a1.51 1.51 0 0 1-.227-.322l-.369-.708a1.502 1.502 0 0 1-.134-.368l-.173-.779a1.488 1.488 0 0 1-.034-.388l.033-.798c.005-.131.028-.261.067-.386l.239-.762c.039-.125.095-.246.166-.356l.429-.674c.035-.055.074-.107.115-.158l29.616-35.391c.042-.05.087-.097.135-.141l.588-.541a1.49 1.49 0 0 1 .321-.226l.708-.37c.117-.061.241-.106.369-.135l.78-.173a1.55 1.55 0 0 1 .326-.036l.86.035c.131.005.261.028.387.067l.762.239c.125.04.245.095.356.166l.674.429c.11.07.21.154.299.25l.541.588c.089.097.166.205.227.322l.369.708c.061.116.105.24.134.368l.173.779c.028.127.04.258.034.388l-.033.798a1.488 1.488 0 0 1-.067.386l-.239.762a1.462 1.462 0 0 1-.166.356l-.429.674a1.768 1.768 0 0 1-.115.158l-29.616 35.391c-.042.05-.086.097-.134.141l-.588.542a1.516 1.516 0 0 1-.323.227l-.708.369c-.116.061-.24.106-.368.134l-.78.173a1.55 1.55 0 0 1-.326.036l-.86-.035z" fill="#fff"/><path d="m785.261 414.466.798.033.762.239.674.429.541.588.369.708.173.78-.033.798-.239.762-.429.674-4.933 5.896-4.935 5.897-4.932 5.894-4.936 5.899-4.94 5.903-4.939 5.903-.588.541-.708.369-.78.173-.798-.033-.762-.239-.674-.429-.541-.588-.369-.708-.173-.78.033-.798.239-.762.429-.674 4.933-5.896 4.935-5.897 4.932-5.894 4.936-5.899 4.939-5.903 4.94-5.903.588-.541.708-.369zm0-3c-.219 0-.437.024-.651.071l-.78.173a2.989 2.989 0 0 0-.737.269l-.708.369c-.233.122-.45.274-.644.452l-.588.541a2.865 2.865 0 0 0-.269.282l-4.94 5.903-4.939 5.903-4.936 5.899-4.932 5.894-4.935 5.897-4.933 5.896c-.083.1-.16.204-.23.314l-.429.674a2.975 2.975 0 0 0-.332.714l-.239.762a3.02 3.02 0 0 0-.135.771l-.033.798c-.011.261.012.522.069.777l.173.78c.057.256.147.504.269.737l.369.708c.122.234.274.45.453.644l.541.588c.176.191.376.359.596.499l.674.429c.222.141.462.253.714.332l.762.239c.25.079.51.124.772.135l.798.033a2.972 2.972 0 0 0 .776-.069l.78-.173c.256-.057.504-.147.736-.269l.708-.369c.234-.122.45-.274.644-.452l.588-.541c.096-.088.186-.182.269-.282l4.939-5.903 4.94-5.903 4.936-5.899 4.932-5.894 4.935-5.897 4.933-5.896c.083-.1.16-.204.23-.314l.429-.674c.142-.222.253-.463.332-.714l.239-.762c.078-.25.124-.51.135-.771l.033-.798a2.984 2.984 0 0 0-.069-.777l-.173-.78a2.989 2.989 0 0 0-.269-.737l-.369-.708a2.98 2.98 0 0 0-.453-.644l-.541-.588a3.003 3.003 0 0 0-.596-.499l-.674-.429a2.993 2.993 0 0 0-.714-.332l-.762-.239a3.02 3.02 0 0 0-.772-.135l-.798-.033a2.607 2.607 0 0 0-.125-.003z" fill="#231f20"/><path d="M43.283 459.799c-.109 0-.219-.012-.326-.036l-.78-.173a1.518 1.518 0 0 1-.368-.134l-.708-.369a1.452 1.452 0 0 1-.322-.227l-.588-.541a1.499 1.499 0 0 1-.135-.141l-29.615-35.391a1.47 1.47 0 0 1-.115-.157l-.429-.674a1.469 1.469 0 0 1-.166-.357l-.239-.762a1.48 1.48 0 0 1-.067-.385l-.033-.797c-.005-.13.006-.261.034-.389l.173-.78c.029-.128.074-.252.135-.368l.369-.708c.061-.117.137-.225.226-.322l.541-.588c.088-.096.188-.18.298-.25l.674-.429c.111-.07.231-.126.357-.166l.762-.239c.125-.04.255-.062.386-.067l.86-.035c.109 0 .218.012.325.036l.78.173c.128.028.253.074.369.135l.708.37c.117.061.225.137.322.226l.588.541c.048.044.093.091.135.142l29.616 35.391c.042.05.08.103.115.158l.429.674c.071.111.126.231.166.356l.239.762c.04.125.062.255.067.386l.033.798c.005.13-.006.261-.034.388l-.173.78a1.518 1.518 0 0 1-.134.368l-.369.708a1.452 1.452 0 0 1-.227.322l-.541.588c-.088.096-.189.18-.299.25l-.674.429a1.507 1.507 0 0 1-.357.166l-.762.239a1.488 1.488 0 0 1-.386.067l-.86.035z" fill="#fff"/><path d="m14.208 416.814.78.173.708.369.588.541 4.939 5.903 4.94 5.903 4.936 5.899 4.932 5.894 4.935 5.897 4.933 5.896.429.674.239.762.033.798-.173.78-.369.708-.541.588-.674.429-.762.239-.798.033-.78-.173-.708-.369-.588-.541-4.939-5.903-4.94-5.903-4.936-5.899-4.932-5.894-4.935-5.897-4.933-5.895-.429-.674-.239-.762-.033-.798.173-.779.369-.708.541-.588.674-.429.762-.239.798-.033m0-3c-.042 0-.083 0-.125.003l-.798.033a2.978 2.978 0 0 0-.772.135l-.762.239c-.251.079-.491.19-.714.332l-.674.429c-.219.14-.42.307-.596.499l-.541.588c-.178.194-.331.41-.452.644l-.369.708c-.122.233-.212.48-.269.736l-.173.779c-.057.255-.08.516-.069.777l.033.798c.011.262.056.521.135.771l.239.762c.079.251.19.491.332.714l.429.674c.07.11.147.214.23.314l4.933 5.895 4.935 5.897 4.932 5.894 4.936 5.899 4.94 5.903 4.939 5.903c.083.1.174.194.27.283l.588.541c.194.178.41.33.644.452l.708.369c.233.121.481.212.737.269l.78.173c.214.047.432.071.651.071.042 0 .083 0 .125-.003l.798-.033c.262-.011.521-.056.772-.135l.762-.239c.252-.079.492-.19.714-.332l.674-.429c.219-.14.42-.307.596-.499l.541-.588c.178-.194.331-.41.452-.644l.369-.708c.122-.233.212-.48.269-.737l.173-.78c.057-.255.08-.516.069-.777l-.033-.798a2.97 2.97 0 0 0-.135-.771l-.239-.762a3.014 3.014 0 0 0-.332-.714l-.429-.674a3.043 3.043 0 0 0-.23-.314l-4.933-5.896-4.935-5.897-4.932-5.894-4.936-5.899-4.94-5.903-4.939-5.903a3.003 3.003 0 0 0-.27-.283l-.588-.541a3.011 3.011 0 0 0-.644-.452l-.708-.369a3.015 3.015 0 0 0-.737-.269l-.78-.173a2.972 2.972 0 0 0-.651-.072z" fill="#231f20"/><path d="M309.37 60.919c-.109 0-.219-.012-.326-.036l-.78-.173a1.518 1.518 0 0 1-.368-.134l-.708-.369a1.481 1.481 0 0 1-.323-.227l-.588-.542a1.372 1.372 0 0 1-.134-.141l-29.616-35.391a1.481 1.481 0 0 1-.115-.158l-.429-.674a1.519 1.519 0 0 1-.166-.356l-.239-.762a1.447 1.447 0 0 1-.067-.386l-.033-.798c-.005-.13.006-.261.034-.388l.173-.779a1.56 1.56 0 0 1 .134-.368l.369-.708c.061-.117.137-.226.227-.322l.541-.588c.088-.096.189-.18.299-.25l.674-.429c.111-.07.23-.126.356-.166l.762-.239c.125-.04.255-.062.387-.067l.86-.035c.109 0 .219.012.326.036l.78.173c.128.029.252.074.369.135l.708.37c.117.061.225.137.321.226l.588.541c.048.044.093.091.135.141l29.616 35.391c.042.05.08.103.115.158l.429.674c.071.111.126.231.166.356l.239.762c.04.125.062.255.067.386l.033.798c.005.13-.006.261-.034.388l-.173.779a1.56 1.56 0 0 1-.134.368l-.369.708a1.452 1.452 0 0 1-.227.322l-.541.588c-.088.096-.188.18-.298.25l-.674.429a1.469 1.469 0 0 1-.357.166l-.762.239c-.125.04-.255.062-.386.067l-.86.035z" fill="#fff"/><path d="m280.295 17.934.779.173.708.369.588.541 4.94 5.903 4.939 5.903 4.936 5.899 4.932 5.894 4.935 5.897 4.933 5.896.429.674.239.762.033.798-.173.78-.369.708-.541.588-.674.429-.762.239-.798.033-.78-.173-.708-.369-.588-.541-4.94-5.903-4.94-5.903-4.936-5.899-4.932-5.894-4.935-5.897-4.933-5.896-.429-.674-.239-.762-.033-.798.173-.78.369-.708.541-.588.674-.429.762-.239.798-.033m0-3c-.042 0-.083 0-.125.003l-.798.033a2.978 2.978 0 0 0-.772.135l-.762.239c-.251.079-.491.19-.714.332l-.674.429c-.219.14-.42.307-.596.499l-.541.588a3.041 3.041 0 0 0-.453.644l-.369.708a2.989 2.989 0 0 0-.269.737l-.173.78c-.056.254-.08.515-.069.775l.033.798c.011.262.056.522.135.772l.239.762c.079.252.191.492.332.714l.429.674c.07.109.146.214.23.314l4.933 5.896 4.935 5.897 4.932 5.894 4.936 5.899 4.94 5.903 4.94 5.903c.083.1.173.194.269.282l.588.541c.194.179.411.331.645.453l.708.369c.232.121.48.212.736.269l.78.173c.214.048.432.072.651.072.042 0 .083 0 .125-.003l.798-.033c.262-.011.522-.056.772-.135l.762-.239c.251-.079.491-.19.714-.332l.674-.429c.219-.14.42-.307.596-.499l.541-.588c.178-.194.331-.411.453-.644l.369-.708c.122-.233.212-.48.269-.737l.173-.78c.057-.255.08-.516.069-.777l-.033-.798a2.97 2.97 0 0 0-.135-.771l-.239-.762a3.014 3.014 0 0 0-.332-.714l-.429-.674a2.939 2.939 0 0 0-.23-.314l-4.933-5.896-4.935-5.897-4.932-5.894-4.936-5.899-4.939-5.903-4.94-5.903a2.987 2.987 0 0 0-.269-.282l-.588-.541a2.976 2.976 0 0 0-.644-.452l-.708-.369a3.008 3.008 0 0 0-.736-.269l-.779-.173a2.972 2.972 0 0 0-.651-.072z" fill="#231f20"/><path d="M85.609 567.368c-.109 0-.219-.012-.326-.036l-.779-.173a1.56 1.56 0 0 1-.368-.134l-.708-.369a1.481 1.481 0 0 1-.323-.227l-.588-.542a1.372 1.372 0 0 1-.134-.141l-55.506-66.33a1.47 1.47 0 0 1-.115-.157l-.429-.673a1.51 1.51 0 0 1-.167-.357l-.239-.762a1.48 1.48 0 0 1-.067-.385l-.034-.797a1.495 1.495 0 0 1 .034-.389l.173-.78c.029-.128.074-.252.135-.369l.37-.708c.061-.117.137-.225.226-.321l.541-.588c.088-.096.188-.18.298-.25l.674-.429c.111-.071.231-.126.356-.166l.762-.239a1.44 1.44 0 0 1 .385-.067l.861-.035c.109 0 .219.012.326.036l.779.173c.128.029.252.074.369.135l.708.37c.117.061.225.137.321.226l.588.541c.048.044.093.091.135.141l55.506 66.33c.042.05.08.102.115.157l.429.674c.071.111.126.231.166.356l.239.762c.04.125.062.254.067.385l.034.798c.006.131-.006.262-.034.389l-.173.779a1.527 1.527 0 0 1-.135.369l-.37.708a1.475 1.475 0 0 1-.226.321l-.541.588c-.088.096-.188.18-.298.25l-.674.429a1.469 1.469 0 0 1-.357.166l-.762.239c-.125.04-.255.062-.386.067l-.86.035z" fill="#fff"/><path d="m30.644 493.444.779.173.708.369.588.541 9.255 11.06 9.255 11.06 9.249 11.052 9.252 11.056 9.249 11.052 9.246 11.049.429.674.239.762.033.798-.173.78-.369.708-.541.588-.674.429-.762.239-.798.033-.78-.173-.708-.369-.588-.541-9.255-11.06-9.255-11.06-9.249-11.052-9.252-11.056-9.249-11.052-9.246-11.049-.429-.674-.239-.762-.033-.798.173-.779.369-.708.541-.588.674-.429.762-.239.798-.033m0-3c-.042 0-.083 0-.125.003l-.798.033a2.978 2.978 0 0 0-.772.135l-.762.239c-.251.079-.491.19-.713.332l-.674.429c-.219.14-.42.307-.596.499l-.541.588c-.178.194-.331.41-.452.644l-.369.708a2.989 2.989 0 0 0-.269.737l-.173.779c-.056.254-.08.515-.069.775l.033.798c.011.262.056.522.135.772l.239.762c.079.251.19.491.332.714l.429.674c.07.11.147.215.23.314l9.246 11.049 9.249 11.052 9.252 11.056 9.249 11.052 9.255 11.06 9.255 11.06c.083.1.173.194.269.282l.588.541c.194.178.41.331.644.453l.708.369c.233.121.48.212.737.269l.78.173c.214.048.432.072.651.072.042 0 .083 0 .125-.003l.798-.033c.262-.011.522-.056.772-.135l.762-.239c.251-.079.491-.19.713-.332l.674-.429c.219-.14.42-.307.596-.499l.541-.588c.179-.194.331-.411.453-.645l.369-.708a3.02 3.02 0 0 0 .268-.736l.173-.78a2.98 2.98 0 0 0 .069-.776l-.033-.798a2.993 2.993 0 0 0-.135-.773l-.239-.762a2.986 2.986 0 0 0-.332-.713l-.429-.674a3.096 3.096 0 0 0-.23-.315l-9.246-11.049-9.249-11.052-9.252-11.056-9.249-11.052-9.255-11.06-9.255-11.06a2.998 2.998 0 0 0-.27-.282l-.588-.541a3.011 3.011 0 0 0-.644-.452l-.708-.369a3.023 3.023 0 0 0-.736-.269l-.779-.173a2.972 2.972 0 0 0-.651-.072z" fill="#231f20"/><path d="M590.565 359.841a1.488 1.488 0 0 1-.386-.067l-.762-.239a1.469 1.469 0 0 1-.357-.166l-.674-.429a1.47 1.47 0 0 1-.157-.115l-35.391-29.615a1.51 1.51 0 0 1-.142-.135l-.541-.588a1.525 1.525 0 0 1-.226-.321l-.37-.708a1.512 1.512 0 0 1-.135-.369l-.173-.779a1.492 1.492 0 0 1-.034-.389l.034-.798a1.48 1.48 0 0 1 .067-.385l.239-.762c.039-.125.095-.246.166-.356l.429-.674c.07-.11.154-.21.25-.299l.588-.541a1.49 1.49 0 0 1 .321-.226l.708-.37c.117-.061.241-.106.369-.135l.78-.173a1.55 1.55 0 0 1 .326-.036l.861.035c.13.005.26.028.385.067l.762.239c.126.04.246.095.357.166l.674.429c.055.035.107.074.158.115l35.391 29.616c.05.042.097.087.141.135l.541.588c.089.097.166.205.227.322l.369.708c.061.116.106.24.134.368l.173.78c.028.127.04.258.034.388l-.033.797a1.488 1.488 0 0 1-.067.386l-.239.762a1.51 1.51 0 0 1-.167.357l-.429.673c-.07.11-.154.21-.25.298l-.588.542a1.51 1.51 0 0 1-.322.227l-.708.369c-.116.061-.24.105-.368.134l-.779.173a1.55 1.55 0 0 1-.326.036l-.86-.035z" fill="#fff"/><path d="m555.494 322.667.798.033.762.239.674.429 5.896 4.933 5.897 4.935 5.894 4.932 5.899 4.936 5.903 4.94 5.903 4.94.541.588.369.708.173.779-.033.798-.239.762-.429.674-.588.541-.708.369-.78.173-.798-.033-.762-.239-.674-.429-5.896-4.933-5.897-4.935-5.894-4.932-5.899-4.936-5.903-4.94-5.903-4.94-.541-.588-.369-.708-.173-.779.033-.798.239-.762.429-.674.588-.541.708-.369.779-.173m0-3c-.219 0-.437.024-.651.071l-.779.173a2.989 2.989 0 0 0-.737.269l-.708.369c-.233.122-.45.274-.644.452l-.588.541c-.192.177-.36.377-.5.597l-.429.674a3.018 3.018 0 0 0-.332.712l-.239.762a2.993 2.993 0 0 0-.135.773l-.033.798c-.011.261.012.521.069.776l.173.779c.057.256.147.504.269.736l.369.708c.122.234.274.45.452.644l.541.588c.088.096.183.186.282.27l5.903 4.94 5.903 4.94 5.899 4.936 5.894 4.932 5.897 4.935 5.896 4.933c.1.083.205.16.314.23l.674.429c.222.141.462.253.714.332l.762.239c.25.078.51.124.772.135l.798.033a3.033 3.033 0 0 0 .776-.068l.78-.173c.256-.057.504-.147.737-.269l.708-.369a2.98 2.98 0 0 0 .644-.453l.588-.541c.191-.176.359-.377.499-.596l.429-.674c.142-.222.253-.462.332-.714l.239-.762c.078-.25.124-.51.135-.772l.033-.798a2.969 2.969 0 0 0-.069-.775l-.173-.779a2.989 2.989 0 0 0-.269-.737l-.369-.708a2.98 2.98 0 0 0-.453-.644l-.541-.588a2.865 2.865 0 0 0-.282-.269l-5.903-4.94-5.903-4.94-5.899-4.936-5.894-4.932-5.897-4.935-5.896-4.933c-.1-.083-.205-.16-.315-.23l-.674-.429a3.025 3.025 0 0 0-.713-.332l-.762-.239a3.02 3.02 0 0 0-.772-.135l-.798-.033a2.607 2.607 0 0 0-.125-.003z" fill="#231f20"/><path d="m485.107 91.822.674 3.258.701 3.256.713 3.256.71 3.259.693 3.259.662 3.265 3.26.661 3.258.693 3.257.709 3.259.714 3.257.701 3.262.676-3.257.676-3.256.701-3.257.713-3.259.71-3.259.693-3.265.662-.661 3.26-.693 3.258-.709 3.257-.714 3.259-.702 3.257-.677 3.262-.674-3.327-.701-3.325-.713-3.326-.71-3.329-.693-3.328-.662-3.334-3.259-.591-3.258-.624-3.258-.64-3.259-.644-3.257-.632-3.262-.607 3.258-.745 3.256-.77 3.256-.782 3.259-.78 3.259-.763 3.265-.73.661-3.192.693-3.189.71-3.187.713-3.189.702-3.188z" fill="#fff"/><path d="m486.572 139.542-2.939-.007-3.955-18.974-8.791-1.677-9.764-1.881-.059-2.937 18.615-4.359 1.872-8.643 2.089-9.555 2.936.008 3.956 18.584 8.822 1.87 9.763 2.088v2.938l-18.585 3.958-1.87 8.822-2.09 9.764zm-17.933-24.159 9.334 1.82 3.245.589 1.204 1.184 2.699 12.949 2.01-9.293.658-3.246 1.172-1.172 12.612-2.685-9.366-2.026-3.247-.658-1.172-1.172-2.7-12.686-2.011 9.1-.657 3.177-1.141 1.16-12.639 2.959z" fill="#231f20"/><path d="m193.39 254.605.674 3.257.701 3.256.713 3.257.71 3.259.693 3.259.662 3.265 3.26.66 3.258.693 3.257.71 3.259.713 3.257.702 3.262.676-3.257.675-3.256.702-3.257.712-3.259.711-3.259.693-3.265.661-.661 3.261-.693 3.258-.709 3.257-.714 3.258-.702 3.258-.677 3.262-.674-3.327-.701-3.326-.713-3.325-.71-3.329-.693-3.328-.662-3.335-3.259-.591-3.258-.623-3.258-.641-3.259-.643-3.257-.633-3.262-.607 3.258-.744 3.256-.771 3.256-.782 3.259-.78 3.259-.762 3.265-.731.661-3.191.693-3.189.709-3.188.714-3.189.702-3.188z" fill="#fff"/><path d="m194.855 302.324-2.939-.007-3.955-18.973-18.555-3.558-.06-2.937 18.615-4.36 1.872-8.642 2.089-9.556 2.936.008 3.956 18.585 8.822 1.869 9.763 2.088v2.938l-18.585 3.958-1.87 8.822-2.09 9.764zm-17.934-24.159 9.335 1.82 3.246.59 1.203 1.184 2.699 12.948 2.01-9.293.658-3.246 1.172-1.172 12.61-2.684-9.365-2.027-3.246-.657-1.173-1.172-2.7-12.686-2.012 9.099-.657 3.177-1.141 1.16-12.641 2.959z" fill="#231f20"/><path d="m67.942 57.291 1.015 4.909 1.055 4.899 1.072 4.899 1.069 4.904 1.043 4.903.995 4.913 4.913.995 4.901 1.043 4.9 1.068 4.904 1.073 4.9 1.055 4.909 1.018-4.908 1.017-4.899 1.055-4.899 1.072-4.905 1.069-4.903 1.043-4.913.995-.995 4.913-1.043 4.902-1.068 4.9-1.073 4.903-1.056 4.901-1.019 4.908-1.016-5.012-1.055-5.004-1.072-5.003-1.069-5.009-1.043-5.007-.995-5.017-4.911-.891-4.902-.938-4.901-.964-4.904-.968-4.901-.952-4.908-.913 4.909-1.121 4.899-1.16 4.898-1.177 4.904-1.173 4.903-1.147 4.914-1.1.996-4.809 1.042-4.797 1.068-4.796 1.073-4.799 1.057-4.796z" fill="#fff"/><path d="m69.405 128.953-2.939-.007-2.068-10.005-3.185-15.023-.799-4.028-8.823-1.649-14.709-2.885-4.896-.911-.06-2.937 9.796-2.279 14.709-3.498 3.983-.891 1.845-8.673 4.215-19.188 2.936.008 2.068 9.796 3.185 14.709.801 3.953 8.854 1.844 19.605 4.212v2.938l-9.796 2.07-14.71 3.185-3.952.801-1.843 8.854-4.215 19.605zM39.57 92.821l17.487 3.41 4.897.889 1.204 1.184 2.035 10.011 2.761 12.952 3.774-17.444.992-4.898 1.172-1.172 9.802-2.035 12.614-2.747-17.518-3.79-4.898-.992-1.172-1.172-2.035-9.802-2.762-12.689-3.775 17.077-.992 4.794-1.141 1.16-9.803 2.244-12.641 3.021z" fill="#231f20"/><path d="m403.566 9.705-.278-2.128-.821-1.982-1.308-1.701-1.701-1.307-1.981-.822-2.128-.278-2.128.278-1.982.822-1.701 1.307-1.307 1.702-.821 1.981-.278 2.128.278 2.127.821 1.982 1.308 1.702 1.701 1.307 1.982.821 2.127.278 2.128-.278 1.982-.822 1.701-1.307 1.307-1.701.821-1.982z" fill="#fff"/><path d="m395.155 19.409-2.127-.277-.381-.102-1.982-.822-.339-.196-1.701-1.307-.276-.275-1.307-1.701-.196-.34-.822-1.982-.102-.38-.278-2.127v-.389l.278-2.128.102-.38.822-1.981.196-.34 1.307-1.701.275-.275 1.701-1.308.34-.196 1.982-.821.38-.102L395.154 0h.389l2.128.278.38.102 1.982.821.339.196 1.701 1.307.276.275 1.307 1.701.196.34.822 1.982.102.38.278 2.128v.389l-.278 2.127-.102.38-.822 1.981-.196.34-1.307 1.701-.275.275-1.701 1.308-.34.196-1.982.821-.38.102-2.128.278h-.389zm-1.542-3.227 1.736.227 1.737-.228 1.616-.669 1.389-1.067 1.067-1.389.67-1.616.227-1.735-.227-1.736-.67-1.617-1.067-1.389-1.388-1.066-1.616-.669L395.351 3l-1.736.228-1.616.669-1.389 1.067-1.067 1.389-.67 1.616-.227 1.736.227 1.735.67 1.617 1.067 1.388 1.389 1.067 1.616.67z" fill="#231f20"/><path d="m94.618 197.143-.278-2.128-.822-1.982-1.307-1.701-1.701-1.307-1.982-.821-2.128-.279-2.127.279-1.982.821-1.701 1.307-1.307 1.702-.822 1.981-.278 2.128.278 2.127.822 1.982 1.307 1.702 1.701 1.307 1.982.821 2.127.278 2.128-.278 1.982-.822 1.701-1.307 1.307-1.701.822-1.982z" fill="#fff"/><path d="M86.595 206.848h-.389l-2.127-.278-.38-.102-1.982-.821-.34-.196-1.701-1.308-.275-.275-1.307-1.701-.196-.34-.822-1.981-.102-.38-.278-2.128v-.389l.278-2.127.102-.38.822-1.982.196-.34 1.307-1.701.276-.275 1.701-1.307.339-.196 1.982-.822.381-.102 2.128-.277h.388l2.128.277.381.102 1.982.822.339.196 1.701 1.307.276.275 1.307 1.701.196.34.822 1.982.102.38.278 2.127v.389l-.278 2.128-.102.38-.822 1.981-.196.34-1.307 1.701-.275.275-1.701 1.308-.34.196-1.982.821-.38.102-2.128.278zm-1.931-3.228 1.736.228 1.736-.228 1.616-.669 1.389-1.067 1.067-1.389.67-1.616.227-1.736-.227-1.735-.67-1.617-1.067-1.388-1.389-1.067-1.615-.67-1.736-.227-1.736.227-1.616.67-1.389 1.066-1.067 1.389-.67 1.616-.227 1.736.227 1.736.67 1.616 1.067 1.389 1.389 1.067 1.616.669z" fill="#231f20"/><path d="m351.053 275.615-.279-2.128-.821-1.982-1.307-1.701-1.702-1.307-1.981-.821-2.128-.278-2.127.278-1.982.822-1.702 1.307-1.307 1.701-.821 1.982-.278 2.127.278 2.128.822 1.982 1.307 1.701 1.701 1.307 1.982.821 2.127.278 2.128-.278 1.982-.821 1.701-1.308 1.307-1.701.821-1.981z" fill="#fff"/><path d="M343.029 285.319h-.388l-2.128-.277-.381-.102-1.982-.822-.339-.196-1.701-1.307-.276-.275-1.307-1.701-.196-.34-.822-1.982-.102-.38-.278-2.127v-.389l.278-2.128.102-.38.822-1.981.196-.34 1.307-1.701.275-.275 1.701-1.308.34-.196 1.982-.821.38-.102 2.128-.278h.389l2.127.278.38.102 1.982.821.34.196 1.701 1.308.275.275 1.307 1.701.196.34.822 1.981.102.38.278 2.128v.389l-.278 2.127-.102.38-.822 1.982-.196.34-1.307 1.701-.276.275-1.701 1.307-.339.196-1.982.822-.381.102-2.128.277zm-1.93-3.227 1.736.227 1.736-.227 1.616-.67 1.389-1.066 1.067-1.389.67-1.616.227-1.736-.227-1.736-.67-1.616-1.067-1.389-1.389-1.067-1.616-.669-1.736-.228-1.736.228-1.616.669-1.389 1.067-1.067 1.389-.67 1.616-.227 1.736.227 1.735.67 1.617 1.067 1.388 1.389 1.067 1.615.67z" fill="#231f20"/><path d="m738.313 319.337-.278-2.128-.821-1.982-1.308-1.701-1.701-1.307-1.981-.822-2.128-.278-2.128.278-1.982.822-1.701 1.307-1.307 1.701-.821 1.982-.278 2.128.278 2.127.821 1.982 1.308 1.701 1.701 1.307 1.982.822 2.127.278 2.128-.278 1.982-.822 1.701-1.307 1.307-1.701.821-1.982z" fill="#fff"/><path d="M730.291 329.041h-.389l-2.127-.278-.38-.102-1.982-.821-.34-.196-1.701-1.307-.276-.275-1.307-1.701-.196-.34-.822-1.982-.102-.38-.278-2.127v-.389l.278-2.128.102-.38.822-1.981.196-.34 1.307-1.701.275-.275 1.701-1.308.34-.196 1.982-.821.38-.102 2.128-.278h.389l2.127.278.38.102 1.982.821.34.196 1.701 1.307.276.275 1.307 1.701.196.34.822 1.982.102.38.278 2.128v.389l-.278 2.127-.102.38-.822 1.981-.196.34-1.307 1.701-.275.275-1.701 1.308-.34.196-1.982.821-.38.102zm-1.931-3.228 1.736.228 1.737-.228 1.616-.669 1.388-1.067 1.067-1.389.67-1.616.227-1.735-.227-1.737-.67-1.616-1.067-1.388-1.388-1.067-1.616-.669-1.736-.228-1.737.228-1.616.669-1.388 1.067-1.067 1.389-.67 1.616-.227 1.736.227 1.735.67 1.617 1.067 1.388 1.388 1.067z" fill="#231f20"/><path d="m306.146 231.063-.159-1.216-.47-1.133-.747-.972-.972-.746-1.132-.47-1.216-.159-1.216.159-1.132.47-.972.747-.747.972-.469 1.132-.159 1.216.159 1.216.469 1.133.747.972.972.746 1.133.47 1.215.159 1.217-.159 1.132-.47.972-.747.747-.972.469-1.132z" fill="#fff"/><path d="M301.645 237.246h-.389l-1.216-.159-.379-.102-1.132-.469-.34-.196-.972-.747-.275-.275-.747-.972-.196-.34-.47-1.133-.102-.38-.159-1.216v-.389l.159-1.216.102-.38.469-1.133.196-.34.747-.972.275-.275.972-.747.339-.196 1.132-.47.38-.102 1.216-.159h.389l1.216.159.38.102 1.132.47.339.196.972.746.276.275.747.972.196.34.47 1.133.102.38.159 1.217v.389l-.159 1.215-.102.38-.469 1.133-.196.34-.747.972-.275.275-.972.747-.339.196-1.132.47-.38.102-1.216.159zm-1.019-3.108.825.108.825-.108.766-.317.66-.507.506-.659.318-.767.108-.824-.108-.825-.318-.768-.507-.658-.66-.507-.767-.317-.824-.108-.825.108-.766.317-.659.507-.506.659-.318.767-.108.825.108.824.318.768.507.659.659.506z" fill="#231f20"/><path d="m428.009 78.46-.159-1.216-.47-1.133-.747-.971-.972-.747-1.132-.47-1.216-.158-1.216.159-1.132.469-.972.747-.747.972-.469 1.133-.159 1.215.159 1.217.47 1.132.746.972.972.747 1.133.469 1.215.159 1.217-.159 1.132-.47.972-.747.747-.972.469-1.132z" fill="#fff"/><path d="M423.508 84.644h-.389l-1.216-.159-.38-.102-1.132-.47-.339-.196-.972-.746-.276-.275-.747-.973-.196-.339-.47-1.132-.102-.381-.159-1.217v-.389l.159-1.216.102-.38.469-1.132.196-.34.747-.972.275-.275.972-.747.339-.196 1.132-.47.38-.102 1.216-.159h.389l1.216.159.379.102 1.132.469.34.196.972.747.275.275.747.972.196.34.47 1.133.102.38.159 1.216v.389l-.159 1.216-.102.38-.469 1.133-.196.34-.747.972-.275.275-.972.747-.339.196-1.132.47-.38.102-1.216.159zm-1.019-3.108.824.108.825-.108.766-.317.659-.507.507-.659.318-.767.108-.825-.108-.824-.318-.768-.507-.659-.659-.506-.766-.317-.825-.108-.825.108-.766.317-.659.507-.507.659-.318.767-.108.824.108.825.318.767.507.659.659.507z" fill="#231f20"/><path d="m345.053 359.076-.16-1.216-.469-1.132-.747-.972-.972-.747-1.132-.469-1.216-.159-1.216.159-1.133.469-.972.747-.746.972-.47 1.133-.159 1.215.159 1.217.47 1.132.747.972.972.747 1.132.469 1.216.159 1.216-.159 1.133-.47.972-.747.746-.972.47-1.132z" fill="#fff"/><path d="M340.552 365.26h-.389l-1.216-.159-.38-.102-1.132-.47-.339-.196-.972-.746-.276-.275-.747-.973-.196-.339-.47-1.132-.102-.381-.159-1.217v-.389l.159-1.216.102-.38.469-1.132.196-.34.747-.972.275-.275.972-.747.339-.196 1.132-.47.38-.102 1.216-.159h.389l1.216.159.379.102 1.132.469.34.196.972.747.275.275.747.972.196.34.47 1.133.102.38.159 1.216v.389l-.159 1.216-.102.38-.469 1.133-.196.34-.747.972-.275.275-.972.747-.339.196-1.132.47-.38.102-1.216.159zm-1.019-3.108.824.108.825-.108.766-.317.659-.507.507-.659.318-.767.108-.825-.108-.824-.318-.768-.507-.659-.659-.506-.766-.317-.825-.108-.825.108-.766.317-.66.507-.507.659-.318.767-.108.824.108.825.318.767.507.659.659.507.767.317z" fill="#231f20"/><path d="m812.792 203.565-.159-1.217-.47-1.132-.747-.972-.972-.747-1.132-.469-1.216-.159-1.216.159-1.133.47-.972.747-.746.972-.47 1.132-.159 1.216.159 1.216.47 1.133.747.972.972.746 1.132.47 1.216.158 1.216-.159 1.133-.469.972-.747.746-.972.47-1.132z" fill="#fff"/><path d="M808.291 209.748h-.389l-1.216-.159-.38-.102-1.132-.47-.339-.195-.972-.746-.276-.276-.747-.972-.196-.34-.47-1.133-.102-.38-.159-1.217v-.389l.159-1.215.102-.38.469-1.133.196-.34.747-.972.275-.275.972-.747.339-.196 1.133-.47.38-.102 1.216-.159h.389l1.216.159.379.102 1.132.469.34.196.972.747.275.275.747.972.196.34.47 1.133.102.38.159 1.216v.389l-.159 1.216-.102.38-.469 1.133-.196.34-.747.972-.275.275-.972.747-.339.196-1.132.47-.38.102zm-1.019-3.108.824.108.825-.108.766-.317.66-.507.506-.659.318-.767.108-.825-.108-.824-.318-.767-.507-.66-.659-.506-.766-.317-.825-.108-.825.108-.767.317-.659.507-.506.659-.318.767-.108.824.108.825.318.768.506.658.66.507z" fill="#231f20"/><path d="m701.922 364.889-.159-1.216-.47-1.133-.747-.972-.972-.746-1.132-.47-1.216-.159-1.216.16-1.132.469-.972.747-.747.972-.469 1.132-.159 1.216.159 1.217.47 1.132.747.972.971.746 1.133.47 1.215.159 1.217-.159 1.132-.47.972-.747.747-.972.469-1.132z" fill="#fff"/><path d="M697.421 371.072h-.389l-1.216-.159-.38-.102-1.132-.47-.339-.196-.972-.746-.276-.275-.747-.972-.196-.34-.47-1.133-.102-.38-.159-1.217v-.389l.159-1.215.102-.38.469-1.133.197-.34.747-.972.275-.275.972-.747.339-.196 1.132-.47.38-.102 1.216-.159h.389l1.216.159.379.102 1.132.469.34.196.972.747.275.275.747.972.196.34.47 1.133.102.38.159 1.216v.389l-.159 1.216-.102.38-.469 1.133-.196.34-.747.972-.275.275-.972.747-.339.196-1.133.47-.38.102-1.216.159zm-1.019-3.108.824.108.825-.108.767-.317.659-.507.506-.659.318-.767.108-.825-.108-.824-.318-.768-.507-.659-.659-.506-.766-.317-.825-.108-.825.108-.766.317-.659.507-.507.659-.318.767-.108.824.108.825.318.767.507.659.659.507z" fill="#231f20"/><path d="m754.357 139.237-.159-1.216-.47-1.133-.747-.972-.972-.746-1.132-.47-1.216-.159-1.216.159-1.133.47-.971.747-.747.972-.47 1.132-.158 1.216.159 1.216.469 1.133.747.972.972.746 1.133.47 1.215.159 1.217-.159 1.132-.47.972-.747.747-.972.469-1.132z" fill="#fff"/><path d="M749.856 145.42h-.389l-1.216-.159-.379-.102-1.132-.469-.34-.196-.972-.747-.275-.275-.747-.972-.196-.34-.47-1.133-.102-.38-.159-1.216v-.389l.159-1.216.102-.38.469-1.133.196-.34.747-.972.275-.275.972-.747.339-.196 1.132-.47.38-.102 1.216-.159h.389l1.216.159.38.102 1.133.47.339.196.972.746.276.276.747.973.196.338.47 1.132.102.381.159 1.217v.389l-.159 1.215-.102.38-.469 1.133-.196.34-.747.972-.275.275-.972.747-.339.196-1.133.47-.38.102-1.216.159zm-1.019-3.108.825.108.825-.108.767-.317.659-.507.506-.659.318-.767.108-.824-.108-.825-.318-.767-.507-.659-.659-.507-.767-.317-.824-.108-.825.108-.766.317-.66.507-.506.659-.318.767-.108.825.108.824.318.767.507.66.659.506z" fill="#231f20"/><path d="m134.531 345.217-.159-1.216-.47-1.133-.747-.972-.972-.746-1.132-.47-1.216-.159-1.216.159-1.133.47-.972.747-.746.972-.47 1.132-.158 1.216.159 1.216.469 1.133.747.972.972.746 1.132.47 1.216.159 1.217-.159 1.132-.47.972-.747.747-.972.469-1.132z" fill="#fff"/><path d="M130.03 351.4h-.389l-1.216-.159-.38-.102-1.132-.47-.339-.196-.972-.746-.276-.275-.747-.973-.196-.339-.47-1.132-.102-.381-.159-1.217v-.389l.159-1.216.102-.38.469-1.132.196-.34.747-.972.275-.275.972-.747.339-.196 1.132-.47.38-.102 1.216-.159h.389l1.216.159.379.102 1.132.469.34.196.972.747.275.275.747.972.196.34.47 1.133.102.38.159 1.216v.389l-.159 1.216-.102.38-.469 1.133-.196.34-.747.972-.275.275-.972.747-.339.196-1.132.47-.38.102-1.216.159zm-1.019-3.108.824.108.825-.108.766-.317.659-.507.507-.659.318-.767.108-.825-.108-.824-.318-.768-.507-.659-.659-.506-.766-.317-.825-.108-.825.108-.766.317-.66.507-.507.659-.318.767-.108.824.108.825.318.767.507.659.659.507.767.317z" fill="#231f20"/><path d="m760.063 510.703-.159-1.216-.47-1.132-.747-.972-.972-.747-1.132-.469-1.216-.159-1.216.159-1.132.469-.972.747-.747.972-.469 1.133-.159 1.215.159 1.217.47 1.132.747.972.971.747 1.133.469 1.215.159 1.217-.159 1.132-.47.972-.747.747-.972.469-1.132z" fill="#fff"/><path d="M755.562 516.887h-.389l-1.216-.159-.38-.102-1.132-.47-.339-.196-.972-.746-.276-.276-.747-.973-.196-.338-.47-1.132-.102-.381-.159-1.217v-.389l.159-1.216.102-.381.469-1.132.196-.339.747-.972.275-.275.972-.747.339-.196 1.133-.47.38-.102 1.216-.159h.389l1.216.159.379.102 1.132.469.34.196.972.747.275.275.747.972.196.34.47 1.133.102.38.159 1.216v.389l-.159 1.216-.102.38-.469 1.133-.197.34-.747.972-.275.275-.972.747-.339.196-1.132.47-.38.102-1.216.159zm-1.019-3.108.824.108.825-.108.766-.317.659-.507.507-.659.318-.767.108-.825-.108-.824-.318-.767-.507-.66-.659-.506-.766-.317-.825-.108-.825.108-.767.317-.659.507-.507.659-.318.767-.108.824.108.825.318.767.507.659.659.507.767.317z" fill="#231f20"/><path d="m10.879 174.582-.159-1.217-.47-1.132-.747-.972-.972-.747-1.132-.469-1.216-.159-1.216.159-1.133.47-.972.747-.746.972-.47 1.132-.159 1.216.159 1.216.47 1.132.747.972.972.747 1.132.47 1.216.158 1.216-.159 1.133-.469.972-.747.746-.972.47-1.133z" fill="#fff"/><path d="M6.378 180.765h-.389l-1.216-.159-.379-.102-1.132-.469-.34-.196-.972-.747-.275-.275-.747-.972-.196-.34-.47-1.133-.102-.38-.16-1.216v-.389l.159-1.216.102-.38.469-1.133.196-.34.747-.972.275-.275.972-.747.339-.196 1.132-.47.38-.102 1.216-.159h.389l1.216.159.38.102 1.132.47.339.196.972.746.276.275.747.973.196.339.47 1.132.102.381.159 1.217v.389l-.159 1.216-.102.38-.469 1.132-.196.34-.747.972-.275.275-.972.747-.339.196-1.132.47-.38.102zm-1.019-3.108.825.108.825-.108.766-.317.66-.507.507-.659.318-.767.108-.824-.108-.825-.318-.767-.507-.659-.659-.507-.767-.317-.824-.108-.825.108-.766.317-.659.507-.507.659-.318.767-.108.825.108.824.318.768.507.659.659.506.766.317z" fill="#231f20"/><path d="M456.723 396.952a1.488 1.488 0 0 1-.386-.067l-.762-.239a1.462 1.462 0 0 1-.356-.166l-.674-.429a1.621 1.621 0 0 1-.157-.115l-56.609-47.371a1.499 1.499 0 0 1-.141-.135l-.541-.588a1.525 1.525 0 0 1-.226-.321l-.37-.708a1.512 1.512 0 0 1-.135-.369l-.173-.779a1.492 1.492 0 0 1-.034-.389l.034-.798a1.48 1.48 0 0 1 .067-.385l.239-.762c.039-.125.095-.246.166-.356l.429-.674c.07-.11.154-.21.25-.298l.588-.542c.097-.089.206-.166.323-.227l.708-.369c.116-.061.24-.106.368-.134l.78-.173a1.55 1.55 0 0 1 .326-.036l.86.035c.131.005.261.028.386.067l.762.239c.126.04.246.096.357.167l.674.429c.055.035.107.073.157.115l56.608 47.371c.05.042.097.087.141.135l.541.588c.089.097.166.205.226.321l.37.708c.061.117.106.241.135.369l.173.78c.028.127.04.258.034.388l-.033.797a1.503 1.503 0 0 1-.067.387l-.239.762c-.04.125-.095.245-.166.356l-.429.674c-.07.11-.154.21-.25.298l-.588.541a1.51 1.51 0 0 1-.322.227l-.708.369c-.116.061-.24.105-.368.134l-.779.173a1.55 1.55 0 0 1-.326.036l-.86-.035z" fill="#fff"/><path d="m400.434 342.022.798.033.762.239.674.429 9.43 7.891 9.432 7.893 9.436 7.896 9.433 7.893 9.439 7.899 9.439 7.899.541.588.369.708.173.78-.033.798-.239.762-.429.674-.588.541-.708.369-.78.173-.798-.033-.762-.239-.674-.429-9.43-7.891-9.432-7.893-9.436-7.896-9.433-7.893-9.439-7.899-9.439-7.899-.541-.588-.369-.708-.173-.78.033-.798.239-.762.429-.674.588-.541.708-.369zm0-3c-.219 0-.437.024-.651.072l-.78.173a2.989 2.989 0 0 0-.737.269l-.708.369c-.233.122-.45.274-.644.452l-.588.541a2.98 2.98 0 0 0-.5.597l-.429.674a3.025 3.025 0 0 0-.332.713l-.239.762c-.079.251-.124.51-.135.773l-.033.798c-.011.261.012.521.069.776l.173.78c.057.256.147.504.269.737l.369.708c.122.233.274.45.452.644l.541.588c.088.096.183.186.282.27l9.439 7.899 9.439 7.899 9.433 7.893 9.436 7.896 9.432 7.893 9.43 7.891c.1.083.205.16.315.23l.674.429c.222.141.462.253.713.332l.762.239c.25.078.51.124.772.135l.798.033a2.972 2.972 0 0 0 .776-.069l.78-.173c.256-.057.504-.147.737-.269l.708-.369a2.98 2.98 0 0 0 .644-.453l.588-.541c.191-.176.359-.377.499-.596l.429-.674c.142-.222.253-.463.332-.714l.239-.762c.078-.25.124-.51.135-.772l.033-.798a2.984 2.984 0 0 0-.069-.777l-.173-.78a2.989 2.989 0 0 0-.269-.737l-.369-.708a2.98 2.98 0 0 0-.453-.644l-.541-.588a2.987 2.987 0 0 0-.282-.269l-9.439-7.899-9.439-7.899-9.433-7.893-9.436-7.896-9.432-7.893-9.43-7.891c-.1-.083-.205-.16-.315-.23l-.674-.429a3.025 3.025 0 0 0-.713-.332l-.762-.239a3.02 3.02 0 0 0-.772-.135l-.798-.033a2.607 2.607 0 0 0-.125-.003z" fill="#231f20"/><path d="m168.444 465.65-1.191-5.689-2.79-5.123-3.752-4.475-4.475-3.753-5.125-2.791-5.689-1.191 5.689-1.191 5.123-2.79 4.475-3.752 3.753-4.475 2.791-5.125 1.191-5.688 1.191 5.689 2.79 5.123 3.752 4.475 4.475 3.752 5.125 2.791 5.689 1.191-5.689 1.191-5.124 2.79-4.474 3.752-3.753 4.475-2.791 5.125z" fill="#fff"/><path d="m166.976 465.958-1.146-5.474-2.613-4.798-3.571-4.259-4.259-3.571-4.8-2.614-5.473-1.146v-2.936l5.473-1.146 4.798-2.613 4.259-3.57 3.572-4.26 2.614-4.8 1.146-5.473h2.936l1.146 5.474 2.613 4.798 3.571 4.259 4.259 3.571 4.8 2.614 5.472 1.146v2.936l-5.473 1.146-4.798 2.613-4.259 3.57-3.572 4.259-2.614 4.8-1.146 5.474h-2.936zm-14.915-23.329 5.139 2.832 4.661 3.938 3.92 4.721 2.664 4.892 2.833-5.14 3.938-4.66 4.721-3.92 4.891-2.664-5.139-2.832-4.66-3.938-3.92-4.721-2.664-4.892-2.833 5.139-3.938 4.661-4.721 3.92-4.891 2.664z" fill="#231f20"/><path d="m819.23 276.016-.908-4.339-2.128-3.908-2.863-3.414-3.413-2.863-3.91-2.129-4.34-.909 4.339-.908 3.909-2.128 3.414-2.862 2.862-3.414 2.13-3.91.908-4.339.908 4.339 2.129 3.908 2.862 3.414 3.413 2.862 3.91 2.13 4.34.908-4.339.909-3.909 2.128-3.413 2.862-2.863 3.414-2.129 3.909z" fill="#fff"/><path d="M820.698 276.323h-2.937l-.863-4.123-1.951-3.583-2.681-3.198-3.198-2.681-3.584-1.953-4.123-.863v-2.936l4.123-.863 3.583-1.951 3.198-2.681 2.682-3.198 1.952-3.584.863-4.124h2.937l.863 4.123 1.951 3.583 2.681 3.198 3.198 2.681 3.584 1.953 4.123.863v2.936l-4.123.863-3.583 1.952-3.198 2.68-2.682 3.198-1.952 3.585zm-13.222-17.869 3.405 1.889 3.6 3.048 3.03 3.66 1.719 3.158 1.888-3.406 3.048-3.6 3.66-3.029 3.157-1.72-3.406-1.889-3.599-3.048-3.03-3.66-1.719-3.157-1.888 3.405-3.048 3.6-3.66 3.03z" fill="#231f20"/></svg></g></svg>