<?xml version="1.0" encoding="utf-8"?>
<!DOCTYPE svg PUBLIC "-//W3C//DTD SVG 20010904//EN" "http://www.w3.org/TR/2001/REC-SVG-20010904/DTD/svg10.dtd">
<svg version="1.0" xmlns="http://www.w3.org/2000/svg" width="975pt" height="442pt" viewBox="0 0 975 442" style="" preserveAspectRatio="xMidYMid meet">
<g fill="#231F20FF" stroke="#231F20FF">
<path d="M 689.352 248.927 C 686.928 250.405 685.510 252.645 683.184 258.673 C 681.523 262.978 672.701 285.778 663.582 309.341 C 654.337 333.226 647.014 353.579 647.032 355.341 C 647.082 360.333 651.040 364.000 656.378 364.000 C 662.044 364.000 663.165 361.734 683.515 309.147 C 694.232 281.453 703.000 257.685 703.000 256.331 C 703.000 252.800 701.372 250.244 698.020 248.510 C 694.242 246.557 693.153 246.609 689.352 248.927 M 697.787 255.504 C 698.206 258.424 659.771 357.111 657.708 358.413 C 655.559 359.768 652.627 358.138 652.208 355.355 C 651.978 353.832 688.594 257.084 690.673 253.720 C 690.956 253.262 692.608 253.025 694.344 253.194 C 696.611 253.414 697.581 254.065 697.787 255.504 "/></g>
<g fill="#231F20FF" stroke="#231F20FF">
<path d="M 172.500 115.208 C 169.411 116.980 168.067 119.211 168.032 122.625 C 167.992 126.577 195.301 188.542 198.585 191.950 C 203.291 196.835 211.979 193.924 213.511 186.949 C 214.345 183.154 186.086 119.000 182.253 115.984 C 179.447 113.777 175.537 113.466 172.500 115.208 M 180.395 121.250 C 181.187 122.488 187.948 137.365 195.420 154.311 C 206.499 179.438 208.814 185.479 207.967 187.061 C 206.801 189.241 202.747 189.659 201.293 187.750 C 199.537 185.445 173.000 124.793 173.000 123.086 C 173.000 118.887 178.075 117.627 180.395 121.250 "/></g>
<g fill="#231F20FF" stroke="#231F20FF">
<path d="M 139.741 262.418 C 132.928 264.870 129.997 269.018 130.004 276.200 C 130.011 284.443 136.159 290.318 144.788 290.328 C 149.653 290.334 153.273 288.120 156.750 283.010 C 160.876 276.947 158.836 268.745 152.000 263.919 C 148.420 261.392 144.071 260.859 139.741 262.418 M 151.511 270.195 C 154.813 274.120 154.723 278.190 151.250 281.931 C 145.210 288.439 134.969 284.761 135.022 276.104 C 135.049 271.688 137.570 268.209 141.506 267.157 C 145.845 265.996 148.710 266.866 151.511 270.195 "/></g>
<g fill="#231F20FF" stroke="#231F20FF">
<path d="M 766.271 135.964 C 760.933 138.387 758.007 143.002 758.007 149.000 C 758.007 165.315 780.949 168.805 786.076 153.270 C 788.450 146.076 783.566 137.085 776.168 135.030 C 771.382 133.701 771.223 133.716 766.271 135.964 M 779.148 142.658 C 782.572 146.303 782.346 152.445 778.672 155.606 C 772.358 161.037 763.000 157.253 763.000 149.268 C 763.000 144.430 765.198 141.265 769.295 140.203 C 773.672 139.069 776.420 139.754 779.148 142.658 "/></g>
<g fill="#231F20FF" stroke="#231F20FF">
<path d="M 806.500 257.946 C 798.923 260.046 796.593 267.747 801.923 273.077 C 807.507 278.661 816.390 275.759 817.633 267.945 C 818.595 261.898 812.380 256.316 806.500 257.946 "/></g>
<g fill="#231F20FF" stroke="#231F20FF">
<path d="M 219.656 330.133 C 218.642 330.722 217.174 332.733 216.393 334.602 C 215.165 337.540 215.167 338.463 216.402 341.420 C 220.263 350.660 234.000 347.991 234.000 338.000 C 234.000 330.991 225.860 326.526 219.656 330.133 "/></g>
</svg>
